<svg width="35" height="35" viewBox="0 0 35 35" fill="none" xmlns="http://www.w3.org/2000/svg">
<path d="M34.4194 16.4412C31.5533 12.2221 28.2793 13.7196 25.6541 13.2999C23.0483 12.7276 20.1965 10.3867 16.3603 12.9927C12.5072 15.6102 15.3847 31.4608 21.7042 33.159C21.7038 33.1665 21.7036 33.1711 21.7036 33.1711C21.7561 33.1812 21.8087 33.1901 21.8615 33.1983C21.9131 33.2101 21.9649 33.221 22.017 33.231C22.017 33.231 22.0184 33.2268 22.0208 33.2197C28.5295 33.9819 37.2938 20.6724 34.4194 16.4412Z" fill="#00BEEA"/>
<path d="M18.5455 1.83958C14.2859 -0.966096 11.8313 1.66779 9.24462 2.28186C6.61777 2.7476 3.08838 1.67244 0.537345 5.54541C-2.0249 9.4354 6.6849 22.9875 13.1741 22.145C13.1767 22.1522 13.1781 22.1565 13.1781 22.1565C13.2304 22.1457 13.2825 22.1339 13.3344 22.1213C13.3866 22.1125 13.4387 22.1029 13.4906 22.0921C13.4906 22.0921 13.4903 22.0877 13.4898 22.0803C19.7966 20.3004 22.8172 4.65332 18.5455 1.83958Z" fill="#FFD469"/>
<path d="M21.7529 20.3455C21.7318 20.5495 21.5833 20.7175 21.3834 20.7636C21.3476 20.7718 21.3115 20.7758 21.2758 20.7758C21.1132 20.7758 20.9586 20.6929 20.8697 20.5512C20.8611 20.5379 20.5093 19.9997 19.9692 19.8966C19.425 19.7929 18.8957 20.1696 18.8905 20.1735C18.7252 20.2931 18.5009 20.2958 18.3335 20.1788C18.1661 20.0618 18.09 19.8526 18.1456 19.6561C18.4091 18.7244 19.3212 18.1576 20.2682 18.3387C21.2141 18.5194 21.8525 19.3821 21.7529 20.3455ZM28.921 19.9909C27.9739 19.81 27.062 20.3766 26.7985 21.3083C26.7429 21.5047 26.819 21.7141 26.9863 21.831C27.1538 21.948 27.378 21.9453 27.5434 21.8257C27.5486 21.8218 28.0778 21.4451 28.622 21.5488C29.1622 21.6519 29.514 22.1901 29.5225 22.2034C29.6115 22.3451 29.7661 22.428 29.9286 22.428C29.9643 22.428 30.0004 22.424 30.0362 22.4158C30.2362 22.3697 30.3847 22.2017 30.4058 21.9977C30.5055 21.0344 29.8671 20.1717 28.921 19.9909ZM26.135 28.8572C26.7992 29.3143 27.6812 28.7211 27.4932 27.9371C27.1509 26.5102 26.0755 24.7857 23.8316 24.3572C21.5758 23.9265 19.9226 25.1694 19.0817 26.3836C18.6272 27.0398 19.2111 27.9167 19.9895 27.7395C20.8839 27.5357 22.0544 27.406 23.2877 27.6415C24.4594 27.8653 25.4251 28.3686 26.135 28.8572ZM8.32811 10.2831C8.05249 9.35462 7.13333 8.80104 6.18969 8.99498C5.24586 9.18919 4.61866 10.061 4.7307 11.0227C4.75435 11.2255 4.90454 11.3899 5.10394 11.4342C5.13833 11.4418 5.17292 11.4456 5.20716 11.4456C5.3715 11.4456 5.52804 11.3605 5.61684 11.2167C5.62026 11.2111 5.96541 10.6607 6.50804 10.549C7.04754 10.438 7.57848 10.8022 7.59031 10.8104C7.75663 10.9287 7.97975 10.9289 8.14621 10.8105C8.31335 10.6917 8.38649 10.4797 8.32811 10.2831ZM16.9566 8.50744C16.6809 7.57891 15.7617 7.02513 14.8182 7.21934C13.8744 7.41355 13.2472 8.28534 13.3592 9.24709C13.3829 9.44991 13.5331 9.61431 13.7325 9.65861C13.7669 9.6662 13.8014 9.66996 13.8357 9.66996C14 9.66996 14.1566 9.58485 14.2454 9.44102C14.2488 9.43548 14.5939 8.88505 15.1366 8.77336C15.6751 8.66248 16.2052 9.02533 16.2188 9.03469C16.3851 9.15309 16.6082 9.15323 16.7747 9.0349C16.9419 8.91609 17.015 8.70404 16.9566 8.50744ZM8.86145 14.4999C8.07313 14.3309 7.48428 15.2159 7.95733 15.8687C8.81832 17.0569 10.4706 18.2404 12.7082 17.7799C14.9576 17.317 16.0112 15.5372 16.325 14.094C16.4946 13.314 15.6202 12.7263 14.9684 13.1873C14.2195 13.7169 13.1871 14.2836 11.9573 14.5367C10.7888 14.7772 9.70412 14.6805 8.86145 14.4999Z" fill="#2B3B47"/>
</svg>
