<svg width="35" height="35" viewBox="0 0 35 35" fill="none" xmlns="http://www.w3.org/2000/svg">
<path d="M32.8098 8.08011C24.3906 6.08675 19.3977 8.36449 17.5 9.56488C15.5996 8.36996 10.6012 6.09222 2.19297 8.08011C1.54492 8.2305 1.09375 8.76918 1.09375 9.38714V28.3555C1.09375 28.7711 1.29883 29.1594 1.6543 29.4164C2.00703 29.6735 2.46094 29.7637 2.89844 29.6653C8.8457 28.3227 12.7941 29.236 15.0227 30.1985C15.0227 30.1985 15.0828 31.4399 17.5766 31.4399C20.0703 31.4399 19.9773 30.1985 19.9773 30.1985C22.2031 29.236 26.1516 28.3227 32.0988 29.6653C32.5363 29.7637 33.0039 29.6707 33.3512 29.4137C33.7012 29.1621 33.9062 28.7739 33.9062 28.3582V9.38714C33.9062 8.76918 33.4551 8.2305 32.8098 8.08011Z" fill="url(#paint0_linear_164_1058)"/>
<path d="M15.4684 29.3535C16.3543 28.3965 18.498 28.3719 19.4086 29.3535C20.7539 28.3691 23.5594 26.2965 30.5293 28.0191C30.9176 28.1148 31.3332 28.0246 31.6422 27.773C31.9539 27.5269 32.1344 27.1496 32.1344 26.7449V8.30155C32.1344 7.69999 31.7352 7.17772 31.1609 7.03006C23.6934 5.09413 19.2637 7.30897 17.5793 8.47381C15.8922 7.3117 11.457 5.09686 3.99766 7.03006C3.42344 7.17772 3.02148 7.69999 3.02148 8.30155V26.7449C3.02148 27.1496 3.20195 27.5269 3.51914 27.7758C3.83359 28.0246 4.23555 28.1121 4.62383 28.0164C11.591 26.2965 14.123 28.3664 15.4684 29.3535Z" fill="url(#paint1_linear_164_1058)"/>
<path d="M16.8107 28.1147C17.2236 28.4429 17.776 28.4429 18.1861 28.1147C19.4057 27.1331 22.9221 25.0386 29.2439 26.7558C29.5967 26.8515 29.9713 26.7612 30.2529 26.5097C30.5346 26.2636 30.6986 25.889 30.6986 25.487V7.10654C30.6986 6.50772 30.335 5.98545 29.8154 5.84053C23.0424 3.91006 19.0283 6.1167 17.4998 7.27881C15.9713 6.12217 11.949 3.91279 5.18691 5.84053C4.66465 5.98819 4.30371 6.50772 4.30371 7.10654V25.487C4.30371 25.889 4.46777 26.2663 4.75488 26.5151C5.03926 26.764 5.40566 26.8515 5.75566 26.7558C12.0748 25.0386 15.5912 27.1331 16.8107 28.1147Z" fill="url(#paint2_linear_164_1058)"/>
<path opacity="0.2" d="M24.7105 6.01558C26.2445 6.01558 27.8852 6.26167 29.5859 6.74565C29.7145 6.7812 29.8211 6.93433 29.8457 7.11753C29.8922 7.4648 30.1465 7.74644 30.4855 7.82847L30.5512 7.84487C30.6824 7.87495 30.8137 7.90776 30.9477 7.94331C31.098 7.98159 31.2156 8.09917 31.2621 8.25503C31.3523 8.55034 31.593 8.77183 31.8937 8.83472C32.1289 8.88394 32.3695 8.93862 32.6129 8.99605C32.8754 9.0562 33.0586 9.25581 33.0586 9.48003V28.4484C33.0586 28.5906 32.9848 28.7273 32.848 28.8257C32.7387 28.905 32.591 28.9515 32.4434 28.9515C32.3887 28.9515 32.334 28.946 32.282 28.9324C30.234 28.4703 28.2598 28.2351 26.4168 28.2351C23.882 28.2351 21.6016 28.6644 19.6383 29.5121C19.3293 29.646 19.1324 29.9468 19.1297 30.2777C19.0914 30.3761 18.7496 30.6851 17.5738 30.6851C16.3105 30.6851 15.9141 30.3324 15.8594 30.1847C15.8211 29.8894 15.6324 29.6324 15.3562 29.5148C13.393 28.6671 11.1125 28.2378 8.57773 28.2378C6.73203 28.2378 4.76055 28.473 2.7125 28.9351C2.65781 28.946 2.60312 28.9542 2.54844 28.9542C2.40352 28.9542 2.26133 28.9105 2.14648 28.8257C2.00977 28.7273 1.93594 28.5933 1.93594 28.4484V9.47729C1.93594 9.25308 2.11914 9.05347 2.38438 8.99331C2.65234 8.93042 2.93672 8.86753 3.25664 8.8019C3.55195 8.74175 3.79258 8.52847 3.88828 8.24136C3.9375 8.09097 4.05508 7.97886 4.20547 7.94058C4.27109 7.92417 4.33398 7.90776 4.39687 7.89409L4.51445 7.86675C4.85898 7.78198 5.11602 7.4894 5.15156 7.13394C5.1707 6.94253 5.28008 6.78394 5.41406 6.74565C7.10937 6.26167 8.74453 6.01831 10.2758 6.01831C13.784 6.01831 15.9852 7.28706 16.9859 8.04448C17.1363 8.15933 17.3168 8.21675 17.4945 8.21675C17.675 8.21675 17.8555 8.15933 18.0059 8.04448C19.0066 7.28433 21.2023 6.01558 24.7105 6.01558ZM24.7105 5.17065C20.9645 5.17065 18.5938 6.53784 17.5 7.37183C16.4035 6.54331 14.0273 5.17339 10.2812 5.17339C8.79922 5.17339 7.10391 5.38667 5.18711 5.93355C4.71133 6.06753 4.37227 6.51323 4.31484 7.04644C4.2082 7.07378 4.1043 7.09565 3.99766 7.12573C3.56289 7.23784 3.2293 7.56323 3.09258 7.97612C2.79727 8.03628 2.49922 8.1019 2.1957 8.173C1.54492 8.32339 1.09375 8.85933 1.09375 9.47729V28.4457C1.09375 28.8613 1.29883 29.2496 1.6543 29.5066C1.91406 29.6953 2.22852 29.7937 2.54844 29.7937C2.66602 29.7937 2.78086 29.78 2.89844 29.7554C5.04766 29.2714 6.93711 29.08 8.57773 29.08C11.4762 29.08 13.6008 29.6734 15.0199 30.2886C15.0199 30.2886 15.0801 31.53 17.5738 31.53C20.0676 31.53 19.9746 30.2886 19.9746 30.2886C21.3965 29.6734 23.5211 29.08 26.4168 29.08C28.0574 29.08 29.9469 29.2714 32.0961 29.7554C32.2109 29.78 32.3258 29.7937 32.4434 29.7937C32.7715 29.7937 33.0914 29.6925 33.3512 29.5039C33.7012 29.2523 33.9062 28.864 33.9062 28.4484V9.47729C33.9062 8.85933 33.4551 8.32065 32.8098 8.17026C32.5609 8.11011 32.3176 8.05815 32.0742 8.0062C31.943 7.57964 31.6066 7.23784 31.1609 7.123C30.9996 7.08198 30.8438 7.0437 30.6852 7.00542C30.6168 6.49136 30.2805 6.06206 29.8156 5.93081C27.8934 5.38394 26.1953 5.17065 24.7105 5.17065Z" fill="#424242"/>
<path d="M7.6291 10.0871C7.46504 10.1063 7.34473 10.2567 7.34473 10.4344V10.932C7.34473 11.0332 7.38574 11.1262 7.4541 11.1945C7.52246 11.2629 7.61543 11.293 7.71113 11.282C9.94512 10.984 12.0178 11.0906 13.8662 11.602C13.9619 11.6293 14.0658 11.6047 14.1479 11.5418C14.2271 11.4762 14.2736 11.3723 14.2736 11.2629V10.757C14.2736 10.5957 14.1725 10.4563 14.0275 10.418C12.0779 9.89298 9.92871 9.78361 7.6291 10.0871Z" fill="#999999"/>
<path d="M7.6291 13.4558C7.46504 13.4776 7.34473 13.6253 7.34473 13.8058V14.3034C7.34473 14.4046 7.38574 14.5003 7.4541 14.5659C7.52246 14.6316 7.61543 14.6644 7.71113 14.6507C9.94512 14.3527 12.0178 14.4593 13.8662 14.9706C13.9619 14.998 14.0658 14.9761 14.1479 14.9105C14.2271 14.8448 14.2736 14.7409 14.2736 14.6343V14.1257C14.2736 13.9671 14.1725 13.8249 14.0275 13.7866C12.0807 13.2616 9.92871 13.1523 7.6291 13.4558Z" fill="#999999"/>
<path d="M7.6291 16.8245C7.46504 16.8491 7.34473 16.9967 7.34473 17.1745V17.6721C7.34473 17.7733 7.38574 17.869 7.4541 17.9346C7.52246 18.0002 7.61543 18.0331 7.71113 18.0194C9.94512 17.7186 12.0178 17.828 13.8662 18.342C13.9619 18.3666 14.0658 18.3448 14.1479 18.2791C14.2271 18.2108 14.2736 18.1096 14.2736 18.003V17.4944C14.2736 17.3358 14.1725 17.1936 14.0275 17.1553C12.0779 16.6331 9.92871 16.5209 7.6291 16.8245Z" fill="#999999"/>
<path d="M7.6291 20.1934C7.46504 20.2152 7.34473 20.3656 7.34473 20.5406V21.0383C7.34473 21.1394 7.38574 21.2351 7.4541 21.3035C7.52246 21.3719 7.61543 21.3992 7.71113 21.3883C9.94512 21.0875 12.0178 21.1941 13.8662 21.7082C13.9619 21.7355 14.0658 21.7137 14.1479 21.6426C14.2271 21.5769 14.2736 21.4758 14.2736 21.3664V20.8578C14.2736 20.6965 14.1725 20.557 14.0275 20.5187C12.0807 19.9992 9.92871 19.8898 7.6291 20.1934Z" fill="#999999"/>
<path d="M21.0576 10.4125C20.9127 10.4507 20.8115 10.5902 20.8115 10.7515V11.2574C20.8115 11.3668 20.858 11.4707 20.9373 11.5363C21.0166 11.6019 21.1205 11.6265 21.2189 11.5964C23.0701 11.0851 25.1428 10.9785 27.374 11.2765C27.467 11.2875 27.56 11.2574 27.6311 11.189C27.7021 11.1234 27.7404 11.0277 27.7404 10.9265V10.4289C27.7404 10.2511 27.6201 10.1007 27.4561 10.0816C25.1537 9.78356 23.0018 9.89293 21.0576 10.4125Z" fill="#999999"/>
<path d="M21.0576 13.7812C20.9127 13.8194 20.8115 13.9616 20.8115 14.1202V14.6288C20.8115 14.7382 20.858 14.8394 20.9373 14.905C21.0166 14.9706 21.1205 14.9925 21.2189 14.9651C23.0701 14.4538 25.14 14.3472 27.374 14.6452C27.467 14.6589 27.56 14.6261 27.6311 14.5605C27.7021 14.4948 27.7404 14.3964 27.7404 14.298V13.8003C27.7404 13.6198 27.6201 13.4722 27.4561 13.4503C25.151 13.1522 22.999 13.2644 21.0576 13.7812Z" fill="#999999"/>
<path d="M21.0576 17.1501C20.9127 17.1884 20.8115 17.3306 20.8115 17.4891V17.9977C20.8115 18.1044 20.858 18.2083 20.9373 18.2739C21.0166 18.3395 21.1205 18.3614 21.2189 18.3368C23.0701 17.8227 25.1428 17.7161 27.374 18.0141C27.467 18.0278 27.56 17.995 27.6311 17.9294C27.7021 17.8638 27.7404 17.7653 27.7404 17.6669V17.172C27.7404 16.9942 27.6201 16.8466 27.4561 16.822C25.1537 16.5212 23.0018 16.6333 21.0576 17.1501Z" fill="#999999"/>
<path d="M21.0576 20.5213C20.9127 20.5596 20.8115 20.6991 20.8115 20.8604V21.3663C20.8115 21.4756 20.858 21.5768 20.9373 21.6424C21.0166 21.7108 21.1205 21.7354 21.2189 21.7081C23.0701 21.194 25.14 21.0874 27.374 21.3881C27.467 21.3991 27.56 21.3717 27.6311 21.3034C27.7021 21.235 27.7404 21.1393 27.7404 21.0381V20.5405C27.7404 20.3655 27.6201 20.2151 27.4561 20.1932C25.151 19.8897 22.999 19.9991 21.0576 20.5213Z" fill="#999999"/>
<mask id="mask0_164_1058" style="mask-type:luminance" maskUnits="userSpaceOnUse" x="1" y="5" width="33" height="27">
<path d="M32.8098 8.07998C32.5609 8.01983 32.3176 7.96787 32.0742 7.91592C31.943 7.48936 31.6066 7.14756 31.1609 7.03272C30.9996 6.9917 30.8438 6.95342 30.6852 6.91514C30.6168 6.40108 30.2805 5.97178 29.8156 5.84053C23.0426 3.91006 19.0285 6.1167 17.5 7.27881C15.9715 6.12217 11.9492 3.91279 5.18711 5.84053C4.71133 5.97451 4.37227 6.42022 4.31484 6.95342C4.2082 6.98076 4.1043 7.00264 3.99766 7.03272C3.56289 7.14483 3.2293 7.47022 3.09258 7.88311C2.79727 7.94326 2.49922 8.00889 2.1957 8.07998C1.54492 8.23037 1.09375 8.76904 1.09375 9.38701V28.3554C1.09375 28.771 1.29883 29.1593 1.6543 29.4163C2.00703 29.6733 2.46094 29.7636 2.89844 29.6651C8.8457 28.3226 12.7941 29.1292 15.0227 30.0917L14.8695 31.1007C14.7957 31.5382 15.0363 31.9565 15.3645 31.9565H19.6355C19.9609 31.9565 20.2043 31.5382 20.1305 31.1007L19.9773 30.1983C22.2031 29.2358 26.1516 28.3226 32.0988 29.6651C32.5363 29.7636 33.0039 29.6706 33.3512 29.4136C33.7012 29.162 33.9062 28.7737 33.9062 28.3581V9.38701C33.9062 8.76904 33.4551 8.23037 32.8098 8.07998Z" fill="white"/>
</mask>
<g mask="url(#mask0_164_1058)">
<path d="M24.7817 4.92725H28.0821V12.2226L26.8216 10.6421C26.7149 10.5081 26.5728 10.4397 26.4333 10.4397C26.2938 10.4397 26.1517 10.5081 26.045 10.6421L24.7845 12.2226V4.92725H24.7817Z" fill="#ED1C24"/>
</g>
<mask id="mask1_164_1058" style="mask-type:luminance" maskUnits="userSpaceOnUse" x="1" y="5" width="33" height="27">
<path d="M32.8098 8.07998C32.5609 8.01983 32.3176 7.96787 32.0742 7.91592C31.943 7.48936 31.6066 7.14756 31.1609 7.03272C30.9996 6.9917 30.8438 6.95342 30.6852 6.91514C30.6168 6.40108 30.2805 5.97178 29.8156 5.84053C23.0426 3.91006 19.0285 6.1167 17.5 7.27881C15.9715 6.12217 11.9492 3.91279 5.18711 5.84053C4.71133 5.97451 4.37227 6.42022 4.31484 6.95342C4.2082 6.98076 4.1043 7.00264 3.99766 7.03272C3.56289 7.14483 3.2293 7.47022 3.09258 7.88311C2.79727 7.94326 2.49922 8.00889 2.1957 8.07998C1.54492 8.23037 1.09375 8.76904 1.09375 9.38701V28.3554C1.09375 28.771 1.29883 29.1593 1.6543 29.4163C2.00703 29.6733 2.46094 29.7636 2.89844 29.6651C8.8457 28.3226 12.7941 29.1292 15.0227 30.0917L14.8695 31.1007C14.7957 31.5382 15.0363 31.9565 15.3645 31.9565H19.6355C19.9609 31.9565 20.2043 31.5382 20.1305 31.1007L19.9773 30.1983C22.2031 29.2358 26.1516 28.3226 32.0988 29.6651C32.5363 29.7636 33.0039 29.6706 33.3512 29.4136C33.7012 29.162 33.9062 28.7737 33.9062 28.3581V9.38701C33.9062 8.76904 33.4551 8.23037 32.8098 8.07998Z" fill="white"/>
</mask>
<g mask="url(#mask1_164_1058)">
<path d="M16.3955 5.07764H18.6021V28.6261H16.3955V5.07764Z" fill="url(#paint3_linear_164_1058)"/>
</g>
<defs>
<linearGradient id="paint0_linear_164_1058" x1="17.5" y1="8.20726" x2="17.5" y2="31.4727" gradientUnits="userSpaceOnUse">
<stop offset="0.0195" stop-color="#A1887F"/>
<stop offset="0.4458" stop-color="#896C62"/>
<stop offset="1" stop-color="#6D4C41"/>
</linearGradient>
<linearGradient id="paint1_linear_164_1058" x1="17.5763" y1="6.62319" x2="17.5763" y2="29.1348" gradientUnits="userSpaceOnUse">
<stop offset="0.0089805" stop-color="#BDBDBD"/>
<stop offset="0.4345" stop-color="#BBBBBB"/>
<stop offset="0.5878" stop-color="#B4B4B4"/>
<stop offset="0.6971" stop-color="#A9A9A9"/>
<stop offset="0.7855" stop-color="#989898"/>
<stop offset="0.8611" stop-color="#828282"/>
<stop offset="0.9281" stop-color="#666666"/>
<stop offset="0.9872" stop-color="#474747"/>
<stop offset="0.9953" stop-color="#424242"/>
</linearGradient>
<linearGradient id="paint2_linear_164_1058" x1="17.4998" y1="5.43803" x2="17.4998" y2="28.1421" gradientUnits="userSpaceOnUse">
<stop offset="0.0048445" stop-color="#E0E0E0"/>
<stop offset="0.4448" stop-color="#DEDEDE"/>
<stop offset="0.6032" stop-color="#D7D7D7"/>
<stop offset="0.7161" stop-color="#CCCCCC"/>
<stop offset="0.8074" stop-color="#BBBBBB"/>
<stop offset="0.8856" stop-color="#A5A5A5"/>
<stop offset="0.9537" stop-color="#8A8A8A"/>
<stop offset="0.9964" stop-color="#757575"/>
</linearGradient>
<linearGradient id="paint3_linear_164_1058" x1="16.3963" y1="16.8521" x2="18.6041" y2="16.8521" gradientUnits="userSpaceOnUse">
<stop offset="0.0153" stop-color="#757575" stop-opacity="0"/>
<stop offset="0.4739" stop-color="#757575" stop-opacity="0.3718"/>
<stop offset="0.5087" stop-color="#757575" stop-opacity="0.4"/>
<stop offset="0.5688" stop-color="#757575" stop-opacity="0.3511"/>
<stop offset="1" stop-color="#757575" stop-opacity="0"/>
</linearGradient>
</defs>
</svg>
