<svg width="35" height="35" viewBox="0 0 35 35" fill="none" xmlns="http://www.w3.org/2000/svg">
<path d="M4.17542 25.8125C4.17542 25.8125 4.61839 32.4543 18.1481 32.3559C31.6778 32.2574 31.8746 26.157 32.0715 25.1234C32.2684 24.0898 27.0047 22.0227 17.2621 22.4656C7.51956 22.9086 3.63948 23.0535 4.17542 25.8125Z" fill="url(#paint0_linear_164_1249)"/>
<path d="M3.14182 20.3109C3.14182 20.3109 2.35432 21.2953 2.45275 21.968C2.55119 22.6406 2.15744 22.2797 2.45275 23.2121C2.74807 24.1445 2.50197 24.6641 3.634 25.077C4.76604 25.4898 4.22463 25.8016 5.4551 26.1652C6.68557 26.5289 7.42385 26.682 8.30979 27.1496C9.19572 27.6172 9.54025 27.8742 10.5738 27.8223C11.6074 27.7703 12.8379 27.8742 12.8379 27.8742L14.7574 28.1859C14.7574 28.1859 15.0528 28.2898 16.4309 28.3937C17.809 28.4977 18.3012 28.0301 18.9903 27.9781C19.6793 27.9262 20.7129 28.2379 21.3035 28.082C21.8942 27.9262 23.2231 27.4094 23.2231 27.4094C23.2231 27.4094 24.4535 26.5289 25.1426 26.5809C25.8317 26.6328 26.9637 26.373 27.5051 26.0641C28.0465 25.7523 29.277 25.6484 29.277 25.6484C29.277 25.6484 30.1137 25.2848 30.9012 24.8719C31.6887 24.4563 32.0824 24.4563 32.427 24.1992C32.7715 23.9395 32.9219 23.9121 33.2637 23.2668C33.5508 22.7199 33.5098 21.9707 33.2637 21.1941C33.0176 20.4176 29.1293 18.3969 29.1293 18.3969L6.05393 17.3086L3.14182 20.3109Z" fill="url(#paint1_radial_164_1249)"/>
<path d="M4.42685 18.7632C4.42685 18.7632 2.58662 19.6737 2.83271 20.1659C3.0788 20.6581 3.2292 20.598 3.2292 20.598C3.2292 20.598 5.70107 21.1175 10.2757 22.2823C14.8503 23.4472 17.1308 24.2073 18.2765 25.055C19.7038 26.1132 20.0675 26.6683 21.0026 26.4905C21.9378 26.3128 22.6269 25.0577 24.4479 23.7151C26.269 22.3726 26.9663 22.1866 29.4409 21.6206C31.7788 21.0847 32.9601 20.9698 33.0585 20.3437C33.1569 19.7175 32.8124 18.2546 32.3694 18.0304C31.9265 17.8062 10.0815 17.8964 10.0815 17.8964C5.5042 17.7159 4.42685 18.7632 4.42685 18.7632Z" fill="url(#paint2_linear_164_1249)"/>
<path d="M6.27261 16.5675L6.01831 18.0769L6.39292 19.8487C6.45581 20.1495 6.63901 20.412 6.89878 20.5706C7.84487 21.153 10.5328 22.3808 16.2093 22.1894C23.6167 21.9405 26.2445 20.8687 28.555 19.8569C30.398 19.0503 30.7234 16.3897 30.7808 15.3452C23.5128 19.9226 13.8769 20.1304 6.27261 16.5675Z" fill="url(#paint3_linear_164_1249)"/>
<path d="M29.5914 16.0481C29.5968 15.8048 29.5914 15.6571 29.5914 15.6571L7.17495 15.5532L6.85229 17.7872C14.0027 20.8497 22.9496 20.4177 29.5914 16.0481Z" fill="#972F00"/>
<path d="M2.83828 14.9351C2.5539 15.214 2.1 15.0171 1.72539 14.8968C1.35078 14.7765 0.888668 14.9651 0.940622 15.3671C0.976168 15.6351 1.16211 15.7062 1.4 15.8183C1.63789 15.9276 1.87304 16.0179 1.70898 16.2312C1.53945 16.4526 1.3289 16.2558 1.04179 16.4964C0.494918 16.9558 1.17304 17.7898 1.53672 17.7788C2.09179 17.7624 2.21211 17.4534 2.51562 17.2484L2.52382 17.2921C2.57578 17.5601 2.8875 17.6859 3.11172 17.53L3.13086 17.5163C3.31679 17.3878 3.5875 17.4179 3.70507 17.612C3.85273 17.8581 3.65859 18.1616 3.62851 18.4487C3.5875 18.8589 3.97851 19.2554 4.37226 19.2034C4.76601 19.1515 5.05039 18.6702 4.91367 18.2819C4.91367 18.7276 5.27187 19.1405 5.69843 19.187C6.125 19.2335 6.55703 18.9054 6.64453 18.4679C6.67187 18.662 6.75117 18.8452 6.86601 19.0011C7.04375 19.2417 7.42382 19.2444 7.60156 19.0038C7.69726 18.8726 7.85039 18.7878 8.00351 18.8288C7.72187 19.0312 7.89414 19.5425 8.21679 19.6655C8.53945 19.7886 8.89218 19.6573 9.21211 19.5261C9.80273 19.2827 10.3961 19.0394 10.9867 18.796C11.3941 18.6292 11.8043 18.4597 12.2281 18.3476C13.259 18.0741 13.907 18.364 14.7246 18.837C15.0965 19.053 15.5559 19.0476 15.9223 18.8234C16.059 18.7386 16.1684 18.6675 16.1875 18.6401C16.6852 18.5226 16.7207 19.1159 16.5402 19.4167C16.4199 19.6163 16.3707 19.8597 16.4691 20.073C16.6852 20.5405 17.3277 20.3573 17.6312 19.9827C17.9266 19.6218 18.1508 19.4276 18.5937 19.3155C19.0668 19.1952 19.5125 19.3292 19.9418 19.1816C20.2863 19.064 20.5269 18.7741 20.8906 18.7687C21.5141 18.7577 21.5469 19.6136 22.2004 19.6054C22.7965 19.5972 22.884 19.0941 23.3269 18.9437C23.718 18.8124 23.8984 19.0202 23.9203 19.4441C23.9422 19.8679 24.0352 20.1659 24.4016 20.3573C25.1125 20.7292 25.9219 19.2609 26.559 19.7558C26.9582 20.0648 26.7559 20.8659 27.1988 21.1038C27.4641 21.246 27.7894 21.071 28.0027 20.855C28.216 20.639 28.5769 19.939 28.8586 19.8323C29.4711 19.5972 30.0891 20.4968 30.6523 20.1577C30.9203 19.9964 30.9723 19.8569 31.0898 19.5589C31.2047 19.2609 31.3769 18.9409 31.675 18.8616C31.8172 18.8234 31.9703 18.889 32.0715 18.9956C32.3039 19.2362 32.684 19.2909 32.9602 19.0995C33.6793 18.6019 34.0102 17.5874 33.7805 16.4335C33.4906 14.9788 31.757 14.5769 31.9047 13.7101C30.9504 14.2132 30.6578 14.6589 29.6488 14.2925C29.1648 14.1175 28.6973 13.8386 28.1832 13.8359C27.3109 13.8331 26.6328 14.6069 25.8098 14.905C25.0359 15.1866 24.1746 15.0253 23.409 14.7163C22.6461 14.4073 21.9434 13.9562 21.1887 13.6253C19.6219 12.939 17.8363 12.8023 16.1902 13.2398C14.957 13.5679 13.7375 14.2132 12.4797 14.0109C11.5582 13.8632 10.7625 13.2753 9.89023 12.9362C7.99804 12.2062 6.18789 13.9835 4.32578 14.0847C3.70507 14.1175 3.10625 13.1741 2.48281 13.6964C2.19297 13.9398 2.23398 14.3116 2.33789 14.5851C2.3707 14.6562 2.72617 15.0444 2.83828 14.9351Z" fill="url(#paint4_linear_164_1249)"/>
<path d="M9.04812 5.23082C6.61453 5.99918 3.73523 8.38082 3.1446 11.2C2.55398 14.0191 3.60398 15.0718 6.95085 15.9879C10.2977 16.9039 12.6575 16.9066 17.0544 17.2347C21.4485 17.5629 26.7641 17.5629 29.3891 16.316C32.0141 15.0691 33.9145 15.266 31.686 9.95309C29.4575 4.6402 21.6509 3.9648 17.8391 3.72144C12.7204 3.39332 10.295 4.83707 9.04812 5.23082Z" fill="url(#paint5_linear_164_1249)"/>
<path d="M9.76984 6.91256C9.88195 7.19967 9.73156 7.3692 9.59211 7.42116C9.45812 7.47311 9.23117 7.4567 9.11632 7.16413C8.98507 6.82233 9.00968 6.37936 9.16554 6.3192C9.3214 6.25905 9.63859 6.5735 9.76984 6.91256Z" fill="#FADC8B"/>
<path d="M14.2844 8.471C14.0082 8.60772 13.8277 8.471 13.7621 8.33701C13.6992 8.2085 13.6965 7.97881 13.9781 7.83936C14.3062 7.67803 14.7492 7.66436 14.823 7.81475C14.8969 7.96787 14.6125 8.30967 14.2844 8.471Z" fill="#FADC8B"/>
<path d="M11.7688 9.24485C11.736 9.5511 11.5281 9.63313 11.3777 9.61672C11.2356 9.60305 11.0387 9.48274 11.0715 9.17102C11.1098 8.80735 11.334 8.42453 11.5008 8.44094C11.6649 8.45735 11.8043 8.88117 11.7688 9.24485Z" fill="#FADC8B"/>
<path d="M15.493 6.28642C15.3508 6.55986 15.1265 6.55712 14.9926 6.48876C14.8668 6.42314 14.7273 6.23993 14.8722 5.96103C15.0418 5.63564 15.3918 5.3622 15.5394 5.43876C15.6871 5.51806 15.6625 5.96103 15.493 6.28642Z" fill="#FADC8B"/>
<path d="M24.1335 6.54622C23.8409 6.45325 23.8026 6.23176 23.8491 6.08684C23.8928 5.95012 24.0487 5.78333 24.3467 5.87629C24.694 5.98567 25.0249 6.28372 24.9757 6.44231C24.9237 6.60637 24.4835 6.65559 24.1335 6.54622Z" fill="#FADC8B"/>
<path d="M19.9554 5.76954C20.1605 5.99922 20.0785 6.20977 19.9664 6.30821C19.8597 6.40391 19.6382 6.4668 19.4304 6.23165C19.1871 5.95821 19.0558 5.53438 19.1816 5.42227C19.3046 5.3129 19.7121 5.4961 19.9554 5.76954Z" fill="#FADC8B"/>
<path d="M26.2938 8.11835C26.1598 7.84218 26.2938 7.66171 26.4278 7.59608C26.5563 7.53319 26.786 7.53046 26.9227 7.8121C27.084 8.14022 27.095 8.58593 26.9446 8.65702C26.7969 8.73085 26.4551 8.44647 26.2938 8.11835Z" fill="#FADC8B"/>
<path d="M24.6777 11.0414C24.3769 11.1016 24.2347 10.9239 24.2074 10.7789C24.18 10.6395 24.2347 10.4153 24.5437 10.3551C24.9019 10.284 25.3339 10.3852 25.3667 10.5492C25.3996 10.7106 25.0359 10.9703 24.6777 11.0414Z" fill="#FADC8B"/>
<path d="M21.4291 8.67622C21.7354 8.66528 21.8475 8.86216 21.8529 9.00981C21.8584 9.152 21.7682 9.36255 21.4537 9.37622C21.0873 9.38989 20.6772 9.22309 20.6717 9.0563C20.6662 8.8895 21.0654 8.69262 21.4291 8.67622Z" fill="#FADC8B"/>
<path d="M18.0496 9.95301C17.9512 10.2429 17.7269 10.2784 17.5848 10.2292C17.448 10.1827 17.284 10.0241 17.3851 9.72606C17.5027 9.37879 17.8062 9.05613 17.9648 9.11082C18.1262 9.16278 18.1672 9.60574 18.0496 9.95301Z" fill="#FADC8B"/>
<path opacity="0.2" d="M16.3735 4.52549C16.8301 4.52549 17.3032 4.54189 17.7844 4.57197C20.7949 4.76611 28.793 5.27744 30.8957 10.2841C31.7543 12.3294 32.0086 13.5927 31.6696 14.1478C31.4563 14.4978 31.5219 14.9517 31.8254 15.2251C31.902 15.2935 31.9813 15.3646 32.066 15.4356C32.4735 15.7884 32.859 16.1192 32.952 16.595C33.1051 17.3661 32.9328 18.0579 32.5117 18.3751C32.5063 18.3778 32.4981 18.3833 32.4926 18.386C32.1754 18.5829 32.0196 18.963 32.1125 19.3239C32.1973 19.6548 32.2246 19.9337 32.2246 20.095C32.077 20.2481 31.9895 20.4505 31.984 20.6665C31.9785 20.9235 32.0852 21.1669 32.2793 21.3337C32.386 21.4239 32.4407 21.4841 32.4653 21.5142C32.6375 22.0938 32.6539 22.5833 32.5035 22.8649C32.3149 23.2231 32.2657 23.2587 32.0852 23.3872C32.0305 23.4255 31.9731 23.4665 31.9102 23.5157C31.8446 23.5649 31.7379 23.6032 31.5383 23.6743L31.4125 23.7181C31.1199 23.822 30.9067 24.079 30.8575 24.3853C30.8082 24.6915 30.9285 25.0032 31.1746 25.1946C31.1828 25.2028 31.191 25.2083 31.1992 25.2138C31.0926 25.9165 30.8629 27.3493 29.277 28.6974C27.1332 30.5212 23.3871 31.4673 18.1453 31.5056H17.8555C14.2981 31.5056 9.48557 30.9942 6.74573 28.5634C5.1762 27.1688 5.03401 25.8044 5.03127 25.7579C5.02854 25.7224 5.02307 25.6868 5.0176 25.6513C4.99573 25.5337 4.98479 25.4243 4.98479 25.3259C4.99026 25.0251 4.83713 24.7435 4.58284 24.5849C4.40237 24.4728 4.18909 24.3716 3.93206 24.2786C3.53284 24.1337 3.53284 24.1337 3.44534 23.6743C3.40706 23.4774 3.36057 23.2341 3.27307 22.9579C3.24026 22.8567 3.22385 22.7884 3.21292 22.7419C3.30315 22.5341 3.36604 22.2716 3.30315 21.8532C3.29768 21.7685 3.39338 21.4376 3.72698 20.9673C3.90198 20.7212 3.92932 20.4067 3.81448 20.1388C3.92659 20.0513 4.09885 19.9337 4.34768 19.786C4.58831 19.6438 4.74417 19.3923 4.76604 19.1134C4.78518 18.8618 4.68948 18.6157 4.51174 18.4407C4.51721 18.4243 4.51995 18.4079 4.52542 18.3915C4.59924 18.1345 4.73596 17.6532 4.44885 17.172C4.22737 16.8028 3.83362 16.5813 3.39338 16.5813C3.29495 16.5813 3.19651 16.5923 3.10081 16.6142C3.02971 16.5485 2.94495 16.4938 2.85198 16.4583C2.76448 16.4228 2.67424 16.4009 2.58401 16.3954C2.64143 16.2095 2.63323 16.0427 2.61135 15.9278C3.01331 15.8923 3.28401 15.7063 3.44807 15.5478C3.77073 15.2306 3.78987 14.7192 3.49729 14.3802C3.6012 14.3392 3.6969 14.2763 3.7762 14.1942C4.01135 13.9591 4.08792 13.6118 3.97581 13.3001C3.80901 12.8435 3.81448 12.2146 3.98948 11.3778C4.50081 8.9333 7.09846 6.7458 9.31604 6.0458C9.55667 5.96924 9.81917 5.86533 10.1199 5.74775C11.3367 5.26104 13.1907 4.52549 16.3735 4.52549ZM16.3735 3.67236C12.2446 3.67236 10.1692 4.87549 9.04807 5.22822C6.61448 5.99658 3.73518 8.37822 3.14456 11.1974C2.93674 12.1899 2.93674 12.9583 3.1637 13.5845C3.07346 13.5517 2.98323 13.5298 2.89026 13.5298C2.75627 13.5298 2.62229 13.5735 2.48557 13.6884C2.19573 13.9317 2.23674 14.3036 2.34065 14.5771C2.36526 14.6454 2.64143 14.9517 2.78635 14.9517C2.80549 14.9517 2.82463 14.9462 2.83831 14.9325C2.73167 15.0392 2.60042 15.0774 2.46096 15.0774C2.22581 15.0774 1.96057 14.9735 1.72542 14.897C1.64885 14.8724 1.56956 14.8614 1.49299 14.8614C1.18674 14.8614 0.899634 15.0474 0.94065 15.3673C0.976196 15.6353 1.16213 15.7063 1.40002 15.8185C1.63792 15.9278 1.87307 16.0181 1.70901 16.2313C1.53948 16.4528 1.32893 16.256 1.04182 16.4938C0.500415 16.9478 1.16487 17.7735 1.53127 17.7735H1.53948C2.09456 17.7735 2.21487 17.4481 2.51838 17.2431L2.52659 17.2868C2.56487 17.4755 2.7262 17.5931 2.89846 17.5931C2.97229 17.5931 3.04612 17.5712 3.11448 17.5247L3.13362 17.511C3.20745 17.4591 3.29495 17.4345 3.38245 17.4345C3.51096 17.4345 3.63674 17.4919 3.70784 17.6095C3.85549 17.8556 3.66135 18.1591 3.63401 18.4462C3.61213 18.6813 3.72971 18.9083 3.90745 19.0505C3.38245 19.3595 2.67151 19.8517 2.8301 20.1688C2.90393 20.3165 2.96682 20.4095 3.02151 20.4751C2.80549 20.7813 2.3762 21.4649 2.45002 21.9735C2.54846 22.6462 2.15471 22.2853 2.45002 23.2177C2.74534 24.1501 2.49924 24.6696 3.63127 25.0825C3.85002 25.1618 4.00588 25.2384 4.1262 25.3122C4.12346 25.4708 4.13987 25.6376 4.17268 25.8181C4.17268 25.8181 4.61018 32.3642 17.85 32.3642H18.1453C31.675 32.2657 31.8719 26.1653 32.0688 25.1317C32.1016 24.954 31.9731 24.7462 31.6914 24.5274C31.9922 24.4181 32.2137 24.3552 32.4133 24.2048C32.7578 23.945 32.9082 23.9177 33.25 23.2724C33.5371 22.7255 33.4961 21.9763 33.25 21.1997C33.2063 21.0657 33.0532 20.8907 32.8289 20.6966C32.9547 20.5981 33.0313 20.486 33.0532 20.3493C33.0996 20.054 33.045 19.57 32.9301 19.1188C32.941 19.1134 32.952 19.1079 32.9602 19.1024C33.6793 18.6048 34.0102 17.5903 33.7805 16.4364C33.6028 15.545 32.8864 15.0501 32.3887 14.6017C32.8645 13.8251 32.7578 12.5454 31.675 9.96416C29.4438 4.65127 21.6453 3.97588 17.8336 3.73252C17.3223 3.68877 16.8356 3.67236 16.3735 3.67236Z" fill="#424242"/>
<defs>
<linearGradient id="paint0_linear_164_1249" x1="18.1035" y1="25.0141" x2="18.1035" y2="32.1016" gradientUnits="userSpaceOnUse">
<stop stop-color="#FFC044"/>
<stop offset="0.8473" stop-color="#CA4300"/>
</linearGradient>
<radialGradient id="paint1_radial_164_1249" cx="0" cy="0" r="1" gradientUnits="userSpaceOnUse" gradientTransform="translate(17.8987 22.8576) scale(15.5991 5.93076)">
<stop stop-color="#583223"/>
<stop offset="0.1013" stop-color="#7B3915"/>
<stop offset="0.225" stop-color="#A04106"/>
<stop offset="0.2906" stop-color="#AE4400"/>
<stop offset="0.3208" stop-color="#A84302"/>
<stop offset="0.7241" stop-color="#623A15"/>
<stop offset="0.9458" stop-color="#603813"/>
</radialGradient>
<linearGradient id="paint2_linear_164_1249" x1="17.9423" y1="17.9237" x2="17.9423" y2="26.3505" gradientUnits="userSpaceOnUse">
<stop offset="0.0049261" stop-color="#FBC02D"/>
<stop offset="0.0811" stop-color="#FCCA30"/>
<stop offset="0.2088" stop-color="#FDD534"/>
<stop offset="0.3596" stop-color="#FDD835"/>
<stop offset="0.6897" stop-color="#FFF59D"/>
<stop offset="1" stop-color="#FDD835"/>
</linearGradient>
<linearGradient id="paint3_linear_164_1249" x1="7.81463" y1="19.0659" x2="30.1571" y2="18.6436" gradientUnits="userSpaceOnUse">
<stop stop-color="#FF3D2A"/>
<stop offset="0.0408" stop-color="#F63424"/>
<stop offset="0.1741" stop-color="#DD1D14"/>
<stop offset="0.3141" stop-color="#CC0D09"/>
<stop offset="0.4638" stop-color="#C10302"/>
<stop offset="0.6404" stop-color="#BE0000"/>
<stop offset="0.9902" stop-color="#FF1500"/>
</linearGradient>
<linearGradient id="paint4_linear_164_1249" x1="17.3477" y1="16.6884" x2="17.3477" y2="21.4916" gradientUnits="userSpaceOnUse">
<stop stop-color="#518F00"/>
<stop offset="0.1974" stop-color="#619E15"/>
<stop offset="0.404" stop-color="#6FAA27"/>
<stop offset="0.4245" stop-color="#72AD2B"/>
<stop offset="0.5468" stop-color="#80B93C"/>
<stop offset="0.6779" stop-color="#88C147"/>
<stop offset="0.8325" stop-color="#8BC34A"/>
<stop offset="1" stop-color="#8CC63F"/>
</linearGradient>
<linearGradient id="paint5_linear_164_1249" x1="8.8641" y1="5.02301" x2="27.888" y2="19.1849" gradientUnits="userSpaceOnUse">
<stop stop-color="#FFC044"/>
<stop offset="0.8473" stop-color="#CA4300"/>
</linearGradient>
</defs>
</svg>
