<svg width="32" height="32" viewBox="0 0 32 32" fill="none" xmlns="http://www.w3.org/2000/svg">
<path d="M23.4975 2.24243C18.02 2.24243 16.0075 7.83993 16.0075 7.83993C16.0075 7.83993 14.0225 2.24243 8.50752 2.24243C4.36252 2.24243 -0.362478 5.52743 1.38252 12.9949C3.12752 20.4624 16.0225 29.7649 16.0225 29.7649C16.0225 29.7649 28.87 20.4624 30.6175 12.9949C32.3625 5.52743 27.9775 2.24243 23.4975 2.24243Z" fill="#F44336"/>
<path d="M7.66248 2.79993C11.9625 2.79993 14.0975 7.42243 14.7875 9.29493C14.885 9.56243 15.2575 9.56993 15.37 9.30993L16 7.83743C15.1125 5.00243 12.6725 2.24243 8.50748 2.24243C6.78248 2.24243 4.95998 2.81243 3.54248 4.01493C4.79498 3.19243 6.26248 2.79993 7.66248 2.79993Z" fill="#CC3333"/>
<path d="M23.4975 2.24243C22.175 2.24243 20.97 2.52993 20.03 3.10993C20.69 2.85493 21.5075 2.79993 22.3175 2.79993C26.37 2.79993 29.9975 5.87243 28.36 12.9749C26.955 19.0724 18.745 26.4699 16.2375 29.2924C16.0775 29.4724 16.0225 29.7624 16.0225 29.7624C16.0225 29.7624 28.87 20.4599 30.6175 12.9924C32.3625 5.52743 27.985 2.24243 23.4975 2.24243Z" fill="#CC3333"/>
<path d="M4.2599 6.20478C5.1974 5.03478 6.8724 4.06728 8.2924 5.18228C9.0599 5.78478 8.7249 7.01978 8.0374 7.53978C7.0374 8.29978 6.1674 8.75728 5.5574 9.94728C5.1924 10.6623 4.9724 11.4448 4.8599 12.2423C4.8149 12.5573 4.4024 12.6348 4.2474 12.3573C3.1924 10.4873 2.8924 7.91228 4.2599 6.20478Z" fill="#FF8A80"/>
<path d="M19.2899 8.66489C18.8499 8.66489 18.5399 8.23989 18.6999 7.82989C18.9974 7.07489 19.3824 6.34489 19.8449 5.69489C20.5299 4.73489 21.8324 4.17489 22.6574 4.75739C23.5024 5.35239 23.3924 6.54239 22.7999 7.11739C21.5274 8.34989 19.9224 8.66489 19.2899 8.66489Z" fill="#FF8A80"/>
</svg>
