<svg width="35" height="35" viewBox="0 0 35 35" fill="none" xmlns="http://www.w3.org/2000/svg">
<path d="M13.6718 33.0859H6.948V22.7199C6.948 21.6535 7.82026 20.7812 8.88667 20.7812H11.7304C12.7968 20.7812 13.6691 21.6535 13.6691 22.7199V33.0859H13.6718Z" fill="#795548"/>
<path opacity="0.2" d="M11.7331 21.6016C12.3511 21.6016 12.8515 22.1047 12.8515 22.7199V32.2656H7.76826V22.7199C7.76826 22.102 8.27139 21.6016 8.88662 21.6016H11.7331ZM11.7331 20.7812H8.88935C7.82295 20.7812 6.95068 21.6535 6.95068 22.7199V33.0859H13.6718V22.7199C13.6718 21.6535 12.7995 20.7812 11.7331 20.7812Z" fill="#424242"/>
<path d="M1.21954 16.2695C1.39454 12.4277 7.60977 1.82925 7.60977 1.82925C7.94337 0.847607 9.78633 0.847607 10.1199 1.82925C10.1199 1.82925 16.152 12.5234 16.1383 16.3542C16.1274 20.1332 15.2086 25.375 8.86485 25.375C2.33516 25.375 1.04454 20.0429 1.21954 16.2695Z" fill="url(#paint0_radial_164_1109)"/>
<path opacity="0.2" d="M8.86485 1.97148C9.12462 1.97148 9.27501 2.07266 9.28868 2.11094L9.31602 2.1875L9.35704 2.25859C11.0004 5.17891 15.2688 13.3984 15.2606 16.3516C15.2441 21.9078 13.2098 24.4973 8.86485 24.4973C6.76485 24.4973 5.12696 23.8957 3.99493 22.7117C2.17384 20.8059 2.02345 17.8828 2.09454 16.3078C2.23126 13.3383 6.66915 5.16797 8.3672 2.27227L8.41095 2.1957L8.43829 2.11094C8.45196 2.07266 8.60235 1.97148 8.86485 1.97148ZM8.86485 1.09375C8.32071 1.09375 7.77657 1.33984 7.60977 1.8293C7.60977 1.8293 1.39454 12.4277 1.21954 16.2695C1.04454 20.043 2.33516 25.375 8.86485 25.375C15.2086 25.375 16.1274 20.1332 16.1383 16.3543C16.1492 12.5234 10.1199 1.8293 10.1199 1.8293C9.95313 1.33984 9.40899 1.09375 8.86485 1.09375Z" fill="#424242"/>
<path d="M1.36984 31.9292C1.36164 31.6093 1.37804 31.0487 1.54484 30.48C1.74172 29.8101 2.17648 28.9624 3.11711 28.7327C3.27023 28.6944 3.42609 28.6753 3.57922 28.6753C3.70226 28.6753 3.82804 28.6862 3.95109 28.7108C3.9675 28.7136 3.98664 28.7163 4.00304 28.7163C4.12336 28.7163 4.23 28.637 4.26554 28.5194C4.51164 27.6772 5.29367 27.0894 6.1714 27.0894C6.8632 27.0894 7.49211 27.4394 7.85851 28.0272C7.91047 28.1093 7.99797 28.1558 8.09094 28.1558C8.11281 28.1558 8.13469 28.153 8.15656 28.1476C8.31242 28.1093 8.47101 28.0901 8.62961 28.0901C8.74992 28.0901 8.87023 28.1011 8.98781 28.1229C9.85461 28.2788 10.5163 28.9815 10.6011 29.8347C10.6284 30.1081 10.5765 30.3761 10.4562 30.5921C10.396 30.6987 10.4069 30.8464 10.4945 30.9339C10.6913 31.1308 10.6995 31.4589 10.6066 31.6804C10.5765 31.7542 10.4862 31.9265 10.3277 31.9265H1.36984V31.9292Z" fill="url(#paint1_radial_164_1109)"/>
<path d="M6.17147 27.3657C6.76756 27.3657 7.3117 27.6692 7.62615 28.1751C7.72732 28.3392 7.90506 28.4321 8.091 28.4321C8.13475 28.4321 8.1785 28.4267 8.22225 28.4157C8.35623 28.3829 8.49295 28.3665 8.62967 28.3665C8.73358 28.3665 8.83748 28.3747 8.94139 28.3938C9.6742 28.5251 10.2594 29.1431 10.3305 29.8622C10.3523 30.081 10.3113 30.2915 10.2183 30.4583C10.0625 30.7372 10.1664 30.9915 10.3004 31.1282C10.366 31.1938 10.3988 31.3114 10.3879 31.4372C10.3769 31.5548 10.3305 31.6313 10.3086 31.656H1.64334C1.65154 31.3552 1.68983 30.956 1.8074 30.5567C2.06443 29.6817 2.52928 29.1567 3.18279 28.9981C3.31404 28.9653 3.44803 28.9489 3.58201 28.9489C3.68865 28.9489 3.79529 28.9599 3.90193 28.979C3.93748 28.9845 3.97029 28.9899 4.00311 28.9899C4.241 28.9899 4.45975 28.8341 4.52811 28.5962C4.73865 27.8716 5.41404 27.3657 6.17147 27.3657ZM6.17147 26.8188C5.14334 26.8188 4.27654 27.5052 4.00311 28.4458C3.86639 28.4212 3.7242 28.4048 3.57928 28.4048C3.40701 28.4048 3.23201 28.4239 3.05154 28.4677C2.10818 28.6974 1.55584 29.4712 1.2824 30.4036C1.01443 31.3114 1.11287 32.1974 1.11287 32.2056H10.3305C10.9047 32.2056 11.1699 31.2267 10.6887 30.7454C10.6859 30.7427 10.932 30.3872 10.8746 29.813C10.7789 28.8341 10.0051 28.0356 9.03983 27.8606C8.90037 27.836 8.76639 27.8251 8.6324 27.8251C8.44647 27.8251 8.266 27.847 8.09373 27.8907C7.69178 27.2454 6.98084 26.8188 6.17147 26.8188Z" fill="#689F38"/>
<path d="M8.39185 29.3591C8.39185 29.3591 8.41372 28.7411 7.91333 28.0767" stroke="#689F38" stroke-width="2" stroke-miterlimit="10" stroke-linecap="round" stroke-linejoin="round"/>
<path d="M4.03857 28.7026C4.62373 28.7136 5.19521 29.1702 5.27998 29.7335" stroke="#689F38" stroke-width="2" stroke-miterlimit="10" stroke-linecap="round" stroke-linejoin="round"/>
<path d="M4.64014 29.9933C5.1542 29.7609 5.846 29.7965 6.37646 30.0672" stroke="#689F38" stroke-width="2" stroke-miterlimit="10" stroke-linecap="round" stroke-linejoin="round"/>
<path d="M20.2426 6.01562L7.4895 16.9477H8.40005V33.0723H32.0852V16.9477H32.9958L20.2426 6.01562Z" fill="url(#paint2_radial_164_1109)"/>
<path opacity="0.2" d="M20.2426 7.0957L31.3387 16.6059C31.2922 16.7098 31.2649 16.8246 31.2649 16.9449V32.2492H9.22036V16.9477C9.22036 16.8273 9.19302 16.7098 9.14653 16.6086L20.2426 7.0957ZM20.2426 6.01562L7.4895 16.9477H8.40005V33.0723H32.0852V16.9477H32.9958L20.2426 6.01562Z" fill="#424242"/>
<path opacity="0.2" d="M22.2906 11.0278C22.5421 11.0278 22.7472 11.2329 22.7472 11.4845V15.5833C22.7472 15.8349 22.5421 16.0399 22.2906 16.0399H18.1917C17.9402 16.0399 17.7351 15.8349 17.7351 15.5833V11.4817C17.7351 11.2302 17.9402 11.0251 18.1917 11.0251H22.2906M22.2906 10.481H18.1917C17.6394 10.481 17.1882 10.9294 17.1882 11.4845V15.5833C17.1882 16.1356 17.6367 16.5868 18.1917 16.5868H22.2906C22.8429 16.5868 23.2941 16.1384 23.2941 15.5833V11.4817C23.2941 10.9294 22.8457 10.481 22.2906 10.481Z" fill="#424242"/>
<path opacity="0.2" d="M27.9864 18.7688C28.238 18.7688 28.4431 18.9739 28.4431 19.2254V25.602C28.4431 25.8536 28.238 26.0586 27.9864 26.0586H23.8849C23.6333 26.0586 23.4282 25.8536 23.4282 25.602V19.2254C23.4282 18.9739 23.6333 18.7688 23.8849 18.7688H27.9864ZM27.9864 18.2219H23.8849C23.3325 18.2219 22.8813 18.6704 22.8813 19.2254V25.602C22.8813 26.1543 23.3298 26.6055 23.8849 26.6055H27.9837C28.536 26.6055 28.9872 26.1571 28.9872 25.602V19.2254C28.9872 18.6731 28.5388 18.2219 27.9864 18.2219Z" fill="#424242"/>
<path d="M20.2426 29.7007H12.0449V18.3148C12.0449 18.0632 12.25 17.8582 12.5016 17.8582H19.7887C20.0402 17.8582 20.2453 18.0632 20.2453 18.3148V29.7007H20.2426Z" fill="url(#paint3_radial_164_1109)"/>
<path d="M19.332 29.1485H12.9555C12.8297 29.1485 12.7285 29.0473 12.7285 28.9215V18.6403C12.7285 18.5145 12.8297 18.4133 12.9555 18.4133H19.332C19.4578 18.4133 19.559 18.5145 19.559 18.6403V28.9215C19.559 29.0473 19.4578 29.1485 19.332 29.1485Z" fill="url(#paint4_radial_164_1109)"/>
<path d="M18.0796 11.3696H22.4054V15.6954H18.0796V11.3696Z" fill="#4FC3F7"/>
<path d="M17.7378 11.4815V15.5804C17.7378 15.8319 17.9429 16.037 18.1944 16.037H22.2933C22.5448 16.037 22.7499 15.8319 22.7499 15.5804V11.4815C22.7499 11.23 22.5448 11.0249 22.2933 11.0249H18.1917C17.9401 11.0276 17.7378 11.23 17.7378 11.4815ZM22.2905 13.3026H20.4694V11.4815H22.2905V13.3026ZM20.0155 11.4815V13.3026H18.1944V11.4815H20.0155ZM18.1917 13.7593H20.0128V15.5804H18.1917V13.7593ZM20.4694 15.5804V13.7593H22.2905V15.5804H20.4694Z" fill="#EEEEEE"/>
<path d="M23.666 19.1106H28.2078V25.7141H23.666V19.1106Z" fill="#4FC3F7"/>
<path d="M18.6484 22.8675H13.6391C13.5133 22.8675 13.4121 22.7664 13.4121 22.6406V19.4523C13.4121 19.3265 13.5133 19.2253 13.6391 19.2253H18.6484C18.7742 19.2253 18.8754 19.3265 18.8754 19.4523V22.6406C18.8754 22.7664 18.7742 22.8675 18.6484 22.8675Z" fill="url(#paint5_radial_164_1109)"/>
<path d="M18.6484 28.3335H13.6391C13.5133 28.3335 13.4121 28.2323 13.4121 28.1065V24.0077C13.4121 23.8819 13.5133 23.7808 13.6391 23.7808H18.6484C18.7742 23.7808 18.8754 23.8819 18.8754 24.0077V28.1065C18.8754 28.2323 18.7742 28.3335 18.6484 28.3335Z" fill="url(#paint6_radial_164_1109)"/>
<path d="M21.1587 30.4583H11.1372V29.6243C11.1372 29.3126 11.3888 29.061 11.7005 29.061H20.5927C20.9044 29.061 21.156 29.3126 21.156 29.6243V30.4583H21.1587Z" fill="url(#paint7_linear_164_1109)"/>
<path opacity="0.3" d="M20.5954 29.3345C20.7567 29.3345 20.8852 29.4657 20.8852 29.6243V30.1849H11.4106V29.6243C11.4106 29.463 11.5418 29.3345 11.7004 29.3345H20.5954ZM20.5954 29.061H11.7032C11.3915 29.061 11.1399 29.3126 11.1399 29.6243V30.4583H21.1614V29.6243C21.1586 29.3126 20.9071 29.061 20.5954 29.061Z" fill="#263238"/>
<path opacity="0.2" d="M15.8105 29.6251C15.8312 29.5765 15.768 29.503 15.6694 29.461C15.5707 29.419 15.474 29.4244 15.4533 29.473C15.4326 29.5216 15.4957 29.5951 15.5944 29.6371C15.693 29.6791 15.7898 29.6737 15.8105 29.6251Z" fill="#424242"/>
<path opacity="0.2" d="M20.1004 30.0763C20.1299 30.0399 20.0987 29.9657 20.0308 29.9105C19.9628 29.8553 19.8837 29.84 19.8542 29.8763C19.8247 29.9127 19.8559 29.9869 19.9239 30.0421C19.9919 30.0973 20.0709 30.1126 20.1004 30.0763Z" fill="#424242"/>
<path opacity="0.08" d="M16.2122 29.9987C16.3421 29.9987 16.4474 29.9473 16.4474 29.8839C16.4474 29.8205 16.3421 29.769 16.2122 29.769C16.0823 29.769 15.9771 29.8205 15.9771 29.8839C15.9771 29.9473 16.0823 29.9987 16.2122 29.9987Z" fill="#424242"/>
<path opacity="0.08" d="M18.2327 29.9851C18.3626 29.9851 18.4679 29.9336 18.4679 29.8702C18.4679 29.8068 18.3626 29.7554 18.2327 29.7554C18.1028 29.7554 17.9976 29.8068 17.9976 29.8702C17.9976 29.9336 18.1028 29.9851 18.2327 29.9851Z" fill="#424242"/>
<path opacity="0.08" d="M17.7487 29.6788C17.8378 29.6788 17.9101 29.6347 17.9101 29.5804C17.9101 29.526 17.8378 29.4819 17.7487 29.4819C17.6596 29.4819 17.5874 29.526 17.5874 29.5804C17.5874 29.6347 17.6596 29.6788 17.7487 29.6788Z" fill="#424242"/>
<path opacity="0.08" d="M20.3794 29.7582C20.5078 29.7582 20.6118 29.6957 20.6118 29.6187C20.6118 29.5417 20.5078 29.4792 20.3794 29.4792C20.251 29.4792 20.147 29.5417 20.147 29.6187C20.147 29.6957 20.251 29.7582 20.3794 29.7582Z" fill="#424242"/>
<path opacity="0.08" d="M14.8093 29.6242C14.8984 29.6242 14.9706 29.5887 14.9706 29.5449C14.9706 29.5011 14.8984 29.4656 14.8093 29.4656C14.7202 29.4656 14.6479 29.5011 14.6479 29.5449C14.6479 29.5887 14.7202 29.6242 14.8093 29.6242Z" fill="#424242"/>
<path opacity="0.08" d="M19.4592 29.8161C19.6026 29.7945 19.7102 29.7201 19.6996 29.6499C19.6891 29.5797 19.5643 29.5404 19.4209 29.562C19.2776 29.5836 19.17 29.658 19.1805 29.7282C19.1911 29.7983 19.3159 29.8377 19.4592 29.8161Z" fill="#424242"/>
<path opacity="0.2" d="M15.2074 29.9775C15.3441 29.9454 15.4421 29.8646 15.4262 29.797C15.4103 29.7293 15.2866 29.7005 15.1499 29.7326C15.0132 29.7647 14.9152 29.8456 14.9311 29.9132C14.947 29.9808 15.0707 30.0096 15.2074 29.9775Z" fill="#424242"/>
<path opacity="0.2" d="M18.6513 29.6624C18.8295 29.6624 18.9739 29.6098 18.9739 29.5448C18.9739 29.4799 18.8295 29.4272 18.6513 29.4272C18.4731 29.4272 18.3286 29.4799 18.3286 29.5448C18.3286 29.6098 18.4731 29.6624 18.6513 29.6624Z" fill="#424242"/>
<path opacity="0.2" d="M16.7613 29.5582C16.8508 29.4992 16.9025 29.4196 16.8767 29.3805C16.851 29.3415 16.7575 29.3576 16.668 29.4166C16.5784 29.4756 16.5267 29.5551 16.5525 29.5942C16.5783 29.6333 16.6717 29.6172 16.7613 29.5582Z" fill="#424242"/>
<path opacity="0.2" d="M17.6066 29.9908C17.637 29.925 17.525 29.8085 17.3563 29.7306C17.1877 29.6527 17.0264 29.6429 16.996 29.7087C16.9656 29.7745 17.0776 29.891 17.2462 29.9689C17.4149 30.0468 17.5762 30.0566 17.6066 29.9908Z" fill="#424242"/>
<path opacity="0.2" d="M13.9278 30.1807C13.9573 30.1444 13.9261 30.0702 13.8581 30.015C13.7902 29.9598 13.7111 29.9445 13.6816 29.9808C13.6521 30.0172 13.6833 30.0914 13.7513 30.1466C13.8193 30.2018 13.8983 30.2171 13.9278 30.1807Z" fill="#424242"/>
<path opacity="0.08" d="M12.0613 30.0891C12.1912 30.0891 12.2965 30.0376 12.2965 29.9742C12.2965 29.9108 12.1912 29.8594 12.0613 29.8594C11.9315 29.8594 11.8262 29.9108 11.8262 29.9742C11.8262 30.0376 11.9315 30.0891 12.0613 30.0891Z" fill="#424242"/>
<path opacity="0.08" d="M11.5773 29.7855C11.6664 29.7855 11.7387 29.7414 11.7387 29.6871C11.7387 29.6327 11.6664 29.5886 11.5773 29.5886C11.4882 29.5886 11.416 29.6327 11.416 29.6871C11.416 29.7414 11.4882 29.7855 11.5773 29.7855Z" fill="#424242"/>
<path opacity="0.08" d="M14.2078 29.8648C14.3361 29.8648 14.4402 29.8024 14.4402 29.7254C14.4402 29.6484 14.3361 29.5859 14.2078 29.5859C14.0794 29.5859 13.9753 29.6484 13.9753 29.7254C13.9753 29.8024 14.0794 29.8648 14.2078 29.8648Z" fill="#424242"/>
<path opacity="0.08" d="M13.2881 29.9226C13.4314 29.901 13.5391 29.8266 13.5285 29.7564C13.5179 29.6862 13.3931 29.6468 13.2498 29.6684C13.1064 29.69 12.9988 29.7644 13.0094 29.8346C13.02 29.9048 13.1447 29.9442 13.2881 29.9226Z" fill="#424242"/>
<path opacity="0.2" d="M12.4796 29.7664C12.6578 29.7664 12.8023 29.7138 12.8023 29.6488C12.8023 29.5839 12.6578 29.5312 12.4796 29.5312C12.3014 29.5312 12.157 29.5839 12.157 29.6488C12.157 29.7138 12.3014 29.7664 12.4796 29.7664Z" fill="#424242"/>
<path d="M23.8849 18.7688C23.6333 18.7688 23.4282 18.9739 23.4282 19.2254V25.602C23.4282 25.8536 23.6333 26.0586 23.8849 26.0586H27.9837C28.2353 26.0586 28.4403 25.8536 28.4403 25.602V19.2254C28.4403 18.9739 28.2353 18.7688 27.9837 18.7688H23.8849ZM26.1626 19.2254H27.9837V21.0465H26.1626V19.2254ZM23.8849 19.2254H25.706V21.0465H23.8849V19.2254ZM23.8849 21.5032H25.706V23.3243H23.8849V21.5032ZM25.7087 25.602H23.8876V23.7809H25.7087V25.602ZM27.9864 25.602H26.1653V23.7809H27.9864V25.602ZM26.1626 23.3243V21.5032H27.9837V23.3243H26.1626Z" fill="#EEEEEE"/>
<path d="M18.5884 24.5083C18.0606 24.5083 17.6313 24.079 17.6313 23.5513C17.6313 23.0235 18.0606 22.5942 18.5884 22.5942C19.1161 22.5942 19.5454 23.0235 19.5454 23.5513C19.5454 24.079 19.1161 24.5083 18.5884 24.5083Z" fill="#FFC107"/>
<path d="M18.5884 22.8677C18.9657 22.8677 19.272 23.1739 19.272 23.5513C19.272 23.9286 18.9657 24.2349 18.5884 24.2349C18.211 24.2349 17.9048 23.9286 17.9048 23.5513C17.9048 23.1739 18.211 22.8677 18.5884 22.8677ZM18.5884 22.3208C17.9103 22.3208 17.3579 22.8731 17.3579 23.5513C17.3579 24.2294 17.9103 24.7817 18.5884 24.7817C19.2665 24.7817 19.8188 24.2294 19.8188 23.5513C19.8188 22.8731 19.2665 22.3208 18.5884 22.3208Z" fill="#C62828"/>
<path d="M28.6672 26.9691H23.204C22.9524 26.9691 22.7473 26.764 22.7473 26.5125V25.6019C22.7473 25.3503 22.9524 25.1453 23.204 25.1453H28.67C28.9215 25.1453 29.1266 25.3503 29.1266 25.6019V26.5125C29.1239 26.764 28.9188 26.9691 28.6672 26.9691Z" fill="#795548"/>
<path opacity="0.2" d="M28.6672 25.6019V26.5125H23.204V25.6019H28.6672ZM28.6672 25.1453H23.204C22.9524 25.1453 22.7473 25.3503 22.7473 25.6019V26.5125C22.7473 26.764 22.9524 26.9691 23.204 26.9691H28.67C28.9215 26.9691 29.1266 26.764 29.1266 26.5125V25.6019C29.1239 25.3503 28.9188 25.1453 28.6672 25.1453Z" fill="#424242"/>
<path d="M33.5152 16.3106L20.9699 5.37856C20.5516 5.01216 19.9309 5.01216 19.5125 5.37856L6.96993 16.3106C6.49961 16.7208 6.44493 17.4399 6.84961 17.9157C7.25157 18.3942 7.95977 18.4489 8.43008 18.0387L19.7969 8.13481C20.0539 7.9106 20.4367 7.9106 20.6938 8.13481L32.0606 18.0387C32.2711 18.2219 32.5309 18.3122 32.7879 18.3122C33.1023 18.3122 33.4168 18.1782 33.6383 17.9157C34.0402 17.4399 33.9855 16.7208 33.5152 16.3106Z" fill="url(#paint8_radial_164_1109)"/>
<path opacity="0.2" d="M20.2426 5.92529C20.2918 5.92529 20.3629 5.93896 20.434 5.99639L32.9793 16.9284C33.1106 17.0433 33.127 17.2538 33.0121 17.3878C32.9356 17.4808 32.8398 17.4944 32.7879 17.4944C32.7387 17.4944 32.6676 17.4808 32.5992 17.4233L21.2297 7.5167C20.9563 7.27881 20.6063 7.14756 20.2426 7.14756C19.8789 7.14756 19.5289 7.27881 19.2555 7.5167L7.88868 17.4206C7.82032 17.4808 7.74649 17.4917 7.7 17.4917C7.65079 17.4917 7.55508 17.478 7.47579 17.3851C7.36368 17.2511 7.37735 17.0405 7.5086 16.9257L20.0539 5.99365C20.1195 5.93896 20.1934 5.92529 20.2426 5.92529ZM20.2426 5.10498C19.9828 5.10498 19.7231 5.19521 19.5125 5.37842L6.96993 16.3105C6.49961 16.7206 6.44493 17.4397 6.84961 17.9155C7.0711 18.178 7.38555 18.312 7.7 18.312C7.95704 18.312 8.2168 18.2218 8.42735 18.0386L19.7941 8.13467C19.9227 8.02256 20.084 7.96787 20.2426 7.96787C20.4012 7.96787 20.5625 8.02256 20.691 8.13467L32.0578 18.0386C32.2684 18.2218 32.5281 18.312 32.7852 18.312C33.0996 18.312 33.4141 18.178 33.6356 17.9155C34.0375 17.437 33.9828 16.7206 33.5152 16.3105L20.9699 5.37842C20.7621 5.19795 20.5023 5.10498 20.2426 5.10498Z" fill="#424242"/>
<path d="M22.0691 31.7325H10.2266V30.7755C10.2266 30.4474 10.4918 30.1821 10.8199 30.1821H21.473C21.8012 30.1821 22.0664 30.4474 22.0664 30.7755V31.7325H22.0691Z" fill="url(#paint9_linear_164_1109)"/>
<path opacity="0.3" d="M21.4757 30.4556C21.6535 30.4556 21.7957 30.6005 21.7957 30.7755V31.4591H10.5V30.7755C10.5 30.5978 10.6449 30.4556 10.8199 30.4556H21.4757ZM21.4757 30.1821H10.8226C10.4945 30.1821 10.2292 30.4474 10.2292 30.7755V31.7325H22.0718V30.7755C22.0691 30.4474 21.8039 30.1821 21.4757 30.1821Z" fill="#263238"/>
<path opacity="0.2" d="M20.4331 30.8794C20.5424 30.8397 20.6159 30.766 20.5974 30.7149C20.5788 30.6638 20.4751 30.6546 20.3658 30.6944C20.2566 30.7341 20.183 30.8078 20.2016 30.8589C20.2202 30.91 20.3238 30.9192 20.4331 30.8794Z" fill="#424242"/>
<path opacity="0.2" d="M15.6547 31.2837C15.732 31.2309 15.7727 31.1558 15.7454 31.1158C15.7182 31.0759 15.6334 31.0863 15.5561 31.1391C15.4787 31.1918 15.4381 31.267 15.4653 31.3069C15.4926 31.3468 15.5773 31.3364 15.6547 31.2837Z" fill="#424242"/>
<path opacity="0.08" d="M19.7585 31.2348C19.902 31.2348 20.0183 31.1834 20.0183 31.12C20.0183 31.0565 19.902 31.0051 19.7585 31.0051C19.6151 31.0051 19.4988 31.0565 19.4988 31.12C19.4988 31.1834 19.6151 31.2348 19.7585 31.2348Z" fill="#424242"/>
<path opacity="0.08" d="M17.5273 31.2211C17.6708 31.2211 17.7871 31.1697 17.7871 31.1063C17.7871 31.0429 17.6708 30.9915 17.5273 30.9915C17.3839 30.9915 17.2676 31.0429 17.2676 31.1063C17.2676 31.1697 17.3839 31.2211 17.5273 31.2211Z" fill="#424242"/>
<path opacity="0.08" d="M18.0632 30.9149C18.1614 30.9149 18.241 30.8708 18.241 30.8165C18.241 30.7621 18.1614 30.718 18.0632 30.718C17.9651 30.718 17.8855 30.7621 17.8855 30.8165C17.8855 30.8708 17.9651 30.9149 18.0632 30.9149Z" fill="#424242"/>
<path opacity="0.08" d="M15.1621 30.9942C15.304 30.9942 15.4191 30.9318 15.4191 30.8548C15.4191 30.7778 15.304 30.7153 15.1621 30.7153C15.0201 30.7153 14.905 30.7778 14.905 30.8548C14.905 30.9318 15.0201 30.9942 15.1621 30.9942Z" fill="#424242"/>
<path opacity="0.08" d="M21.3064 30.8576C21.4046 30.8576 21.4841 30.8221 21.4841 30.7783C21.4841 30.7345 21.4046 30.699 21.3064 30.699C21.2082 30.699 21.1287 30.7345 21.1287 30.7783C21.1287 30.8221 21.2082 30.8576 21.3064 30.8576Z" fill="#424242"/>
<path opacity="0.08" d="M16.4827 30.9641C16.4918 30.8937 16.3705 30.82 16.2118 30.7994C16.0531 30.7789 15.917 30.8193 15.9079 30.8896C15.8987 30.96 16.02 31.0338 16.1788 31.0543C16.3375 31.0749 16.4736 31.0345 16.4827 30.9641Z" fill="#424242"/>
<path opacity="0.2" d="M21.1718 31.1496C21.1858 31.08 21.0747 30.999 20.9237 30.9687C20.7726 30.9384 20.6389 30.9702 20.6249 31.0398C20.6109 31.1094 20.722 31.1904 20.873 31.2207C21.0241 31.251 21.1578 31.2192 21.1718 31.1496Z" fill="#424242"/>
<path opacity="0.2" d="M17.0681 30.8985C17.2644 30.8985 17.4236 30.8458 17.4236 30.7809C17.4236 30.716 17.2644 30.6633 17.0681 30.6633C16.8718 30.6633 16.7126 30.716 16.7126 30.7809C16.7126 30.8458 16.8718 30.8985 17.0681 30.8985Z" fill="#424242"/>
<path opacity="0.2" d="M19.3895 30.8308C19.4135 30.7888 19.3511 30.708 19.2501 30.6503C19.1492 30.5926 19.0479 30.5798 19.0239 30.6218C18.9999 30.6637 19.0623 30.7445 19.1633 30.8022C19.2642 30.86 19.3655 30.8727 19.3895 30.8308Z" fill="#424242"/>
<path opacity="0.2" d="M18.6109 31.2086C18.7985 31.1326 18.928 31.0153 18.9002 30.9468C18.8724 30.8782 18.6978 30.8842 18.5102 30.9602C18.3227 31.0363 18.1932 31.1535 18.221 31.2221C18.2488 31.2907 18.4234 31.2846 18.6109 31.2086Z" fill="#424242"/>
<path opacity="0.2" d="M13.7139 30.9834C13.8232 30.9437 13.8967 30.87 13.8781 30.8189C13.8595 30.7679 13.7559 30.7587 13.6466 30.7984C13.5373 30.8381 13.4638 30.9118 13.4824 30.9629C13.501 31.014 13.6046 31.0232 13.7139 30.9834Z" fill="#424242"/>
<path opacity="0.08" d="M13.0403 31.3415C13.1837 31.3415 13.3 31.2901 13.3 31.2267C13.3 31.1632 13.1837 31.1118 13.0403 31.1118C12.8968 31.1118 12.7805 31.1632 12.7805 31.2267C12.7805 31.2901 12.8968 31.3415 13.0403 31.3415Z" fill="#424242"/>
<path opacity="0.08" d="M11.345 31.0216C11.4431 31.0216 11.5227 30.9775 11.5227 30.9231C11.5227 30.8688 11.4431 30.8247 11.345 30.8247C11.2468 30.8247 11.1672 30.8688 11.1672 30.9231C11.1672 30.9775 11.2468 31.0216 11.345 31.0216Z" fill="#424242"/>
<path opacity="0.2" d="M14.4543 31.2578C14.4682 31.1882 14.3571 31.1072 14.2061 31.0768C14.0551 31.0465 13.9214 31.0783 13.9074 31.1479C13.8934 31.2175 14.0045 31.2985 14.1555 31.3288C14.3065 31.3592 14.4403 31.3273 14.4543 31.2578Z" fill="#424242"/>
<path opacity="0.2" d="M12.669 30.9345C12.693 30.8926 12.6306 30.8118 12.5297 30.7541C12.4287 30.6964 12.3274 30.6836 12.3034 30.7255C12.2795 30.7675 12.3418 30.8483 12.4428 30.906C12.5438 30.9637 12.645 30.9765 12.669 30.9345Z" fill="#424242"/>
<path opacity="0.2" d="M11.8914 31.3131C12.079 31.2371 12.2085 31.1198 12.1807 31.0513C12.1529 30.9827 11.9783 30.9887 11.7908 31.0647C11.6032 31.1408 11.4737 31.258 11.5015 31.3266C11.5293 31.3951 11.7039 31.3891 11.8914 31.3131Z" fill="#424242"/>
<path d="M24.0818 33.1188C23.8931 33.1188 23.7919 32.9191 23.7564 32.8344C23.6525 32.5828 23.6634 32.2137 23.8849 31.9922C23.9724 31.9047 23.9806 31.757 23.9204 31.6504C23.7864 31.4125 23.729 31.1145 23.7591 30.8109C23.8493 29.8867 24.5985 29.0937 25.5364 28.9242C25.6677 28.8996 25.8017 28.8887 25.9329 28.8887C26.1079 28.8887 26.2829 28.9105 26.4552 28.9516C26.4771 28.957 26.4989 28.9598 26.5208 28.9598C26.6138 28.9598 26.7013 28.9133 26.7532 28.8313C27.1552 28.1832 27.8525 27.7949 28.6153 27.7949C29.5833 27.7949 30.4474 28.443 30.7181 29.3699C30.7536 29.4875 30.8603 29.5668 30.9806 29.5668C30.997 29.5668 31.0134 29.5641 31.0325 29.5613C31.1693 29.5367 31.306 29.523 31.4427 29.523C31.6122 29.523 31.7845 29.5449 31.954 29.5859C32.8673 29.8074 33.5564 30.6141 33.6275 31.5437C33.6712 32.1262 33.4935 32.6812 33.1216 33.1215H24.0818V33.1188Z" fill="url(#paint10_radial_164_1109)"/>
<path d="M28.6151 28.0684C29.4628 28.0684 30.2175 28.6344 30.4554 29.4465C30.5237 29.6844 30.7425 29.8402 30.9804 29.8402C31.0132 29.8402 31.0487 29.8375 31.0815 29.8293C31.2019 29.8074 31.3222 29.7937 31.4398 29.7937C31.5874 29.7937 31.7378 29.8129 31.8855 29.8484C32.6866 30.0426 33.2882 30.748 33.3511 31.5602C33.3866 32.0277 33.2581 32.4762 32.9847 32.8453L24.0843 32.848C24.0624 32.8371 23.994 32.7605 23.9694 32.6102C23.9476 32.4789 23.9612 32.2984 24.0733 32.1863C24.2101 32.0523 24.3112 31.7953 24.1554 31.5164C24.0487 31.325 24.0023 31.0844 24.0269 30.8383C24.1062 30.0344 24.7597 29.3426 25.5827 29.1922C25.6976 29.1703 25.8151 29.1621 25.93 29.1621C26.0831 29.1621 26.2362 29.1812 26.3866 29.2168C26.4304 29.2277 26.4741 29.2332 26.5179 29.2332C26.7038 29.2332 26.8815 29.1375 26.9827 28.9762C27.3409 28.4074 27.948 28.0684 28.6151 28.0684ZM28.6151 27.5215C27.7319 27.5215 26.9554 27.9863 26.5206 28.6863C26.3319 28.6398 26.1351 28.6152 25.9327 28.6152C25.7878 28.6152 25.6401 28.6289 25.487 28.6563C24.4315 28.8477 23.5894 29.7199 23.4855 30.7863C23.4253 31.4125 23.6933 31.798 23.6878 31.8035C23.1628 32.3285 23.4526 33.3977 24.0788 33.3977H33.2417C33.6929 32.9137 33.9526 32.2492 33.898 31.5246C33.8187 30.4691 33.0448 29.575 32.0167 29.3234C31.8198 29.277 31.6284 29.2551 31.4425 29.2551C31.2839 29.2551 31.1308 29.2715 30.9804 29.2988C30.6823 28.2707 29.7362 27.5215 28.6151 27.5215Z" fill="#689F38"/>
<path d="M26.1925 30.2942C26.1925 30.2942 26.1706 29.6188 26.712 28.897" stroke="#689F38" stroke-width="2" stroke-miterlimit="10" stroke-linecap="round" stroke-linejoin="round"/>
<path d="M30.9395 29.575C30.3024 29.5859 29.679 30.0863 29.5833 30.6988" stroke="#689F38" stroke-width="2" stroke-miterlimit="10" stroke-linecap="round" stroke-linejoin="round"/>
<path d="M30.286 30.9833C29.7255 30.729 28.9708 30.7672 28.3911 31.0626" stroke="#689F38" stroke-width="2" stroke-miterlimit="10" stroke-linecap="round" stroke-linejoin="round"/>
<path d="M1.09375 31.7188H33.9062V33.9062H1.09375V31.7188Z" fill="#689F38"/>
<path opacity="0.2" d="M1.09375 33.0859H33.9062V33.9062H1.09375V33.0859Z" fill="#424242"/>
<defs>
<radialGradient id="paint0_radial_164_1109" cx="0" cy="0" r="1" gradientUnits="userSpaceOnUse" gradientTransform="translate(6.76759 8.92085) scale(13.5125 13.5125)">
<stop stop-color="#8BC34A"/>
<stop offset="0.7888" stop-color="#558B2F"/>
<stop offset="1" stop-color="#558B2F"/>
</radialGradient>
<radialGradient id="paint1_radial_164_1109" cx="0" cy="0" r="1" gradientUnits="userSpaceOnUse" gradientTransform="translate(4.20627 26.9827) rotate(90) scale(5.56773 6.67794)">
<stop stop-color="#9CCC65"/>
<stop offset="0.3004" stop-color="#96C660"/>
<stop offset="0.3827" stop-color="#93C35E"/>
<stop offset="0.4872" stop-color="#86B854"/>
<stop offset="0.8182" stop-color="#639739"/>
<stop offset="0.9952" stop-color="#558B2F"/>
</radialGradient>
<radialGradient id="paint2_radial_164_1109" cx="0" cy="0" r="1" gradientUnits="userSpaceOnUse" gradientTransform="translate(20.2424 6.10012) scale(29.2359)">
<stop stop-color="#FFD54F"/>
<stop offset="0.179" stop-color="#FFD34B"/>
<stop offset="0.3526" stop-color="#FFCE3F"/>
<stop offset="0.524" stop-color="#FFC62C"/>
<stop offset="0.693" stop-color="#FFBA11"/>
<stop offset="0.7785" stop-color="#FFB300"/>
<stop offset="1" stop-color="#FFB300"/>
</radialGradient>
<radialGradient id="paint3_radial_164_1109" cx="0" cy="0" r="1" gradientUnits="userSpaceOnUse" gradientTransform="translate(16.0007 17.8018) scale(11.9566 11.9566)">
<stop stop-color="#D32F2F"/>
<stop offset="0.4374" stop-color="#CA2929"/>
<stop offset="0.9957" stop-color="#B71C1C"/>
</radialGradient>
<radialGradient id="paint4_radial_164_1109" cx="0" cy="0" r="1" gradientUnits="userSpaceOnUse" gradientTransform="translate(16.1145 18.4281) scale(10.733)">
<stop stop-color="#EF5350"/>
<stop offset="1" stop-color="#E53935"/>
</radialGradient>
<radialGradient id="paint5_radial_164_1109" cx="0" cy="0" r="1" gradientUnits="userSpaceOnUse" gradientTransform="translate(16.0292 19.396) scale(9.47707)">
<stop stop-color="#E53935"/>
<stop offset="0.4072" stop-color="#DC3431"/>
<stop offset="1" stop-color="#C62828"/>
</radialGradient>
<radialGradient id="paint6_radial_164_1109" cx="0" cy="0" r="1" gradientUnits="userSpaceOnUse" gradientTransform="translate(16.0292 19.3959) scale(9.47707 9.47707)">
<stop stop-color="#E53935"/>
<stop offset="0.4072" stop-color="#DC3431"/>
<stop offset="1" stop-color="#C62828"/>
</radialGradient>
<linearGradient id="paint7_linear_164_1109" x1="16.1485" y1="29.1704" x2="16.1485" y2="30.6579" gradientUnits="userSpaceOnUse">
<stop offset="0.0042918" stop-color="#BDBDBD"/>
<stop offset="0.2153" stop-color="#B5B5B5"/>
<stop offset="0.5502" stop-color="#9E9E9E"/>
<stop offset="0.9652" stop-color="#787878"/>
<stop offset="1" stop-color="#757575"/>
</linearGradient>
<radialGradient id="paint8_radial_164_1109" cx="0" cy="0" r="1" gradientUnits="userSpaceOnUse" gradientTransform="translate(20.1283 5.0488) scale(15.4038)">
<stop stop-color="#F44336"/>
<stop offset="0.34" stop-color="#EE3F35"/>
<stop offset="0.8027" stop-color="#DC3531"/>
<stop offset="0.9957" stop-color="#D32F2F"/>
</radialGradient>
<linearGradient id="paint9_linear_164_1109" x1="16.1484" y1="30.2313" x2="16.1484" y2="31.7079" gradientUnits="userSpaceOnUse">
<stop offset="0.0042918" stop-color="#BDBDBD"/>
<stop offset="0.3969" stop-color="#BABABA"/>
<stop offset="0.7025" stop-color="#B0B0B0"/>
<stop offset="0.9786" stop-color="#A0A0A0"/>
<stop offset="1" stop-color="#9E9E9E"/>
</linearGradient>
<radialGradient id="paint10_radial_164_1109" cx="0" cy="0" r="1" gradientUnits="userSpaceOnUse" gradientTransform="translate(28.4706 28.102) rotate(90) scale(6.81898 7.92162)">
<stop stop-color="#9CCC65"/>
<stop offset="0.2538" stop-color="#96C760"/>
<stop offset="0.5994" stop-color="#84B851"/>
<stop offset="0.9952" stop-color="#689F38"/>
</radialGradient>
</defs>
</svg>
