<svg width="35" height="35" viewBox="0 0 35 35" fill="none" xmlns="http://www.w3.org/2000/svg">
<path d="M24.1172 32.8125H10.8828C7.28437 32.8125 4.375 29.9031 4.375 26.3047V13.1578C4.375 9.51562 7.32812 6.5625 10.9703 6.5625H24.0406C27.6719 6.5625 30.625 9.51562 30.625 13.1578V26.3156C30.625 29.9031 27.7156 32.8125 24.1172 32.8125Z" fill="url(#paint0_radial_164_1296)"/>
<path d="M4.375 13.125C4.375 9.50063 7.31313 6.5625 10.9375 6.5625H13.125V32.8125H10.9375C7.31313 32.8125 4.375 29.8744 4.375 26.25V13.125Z" fill="url(#paint1_linear_164_1296)"/>
<path d="M4.375 26.25H30.625C30.625 29.8744 27.6869 32.8125 24.0625 32.8125H10.9375C7.31313 32.8125 4.375 29.8744 4.375 26.25Z" fill="url(#paint2_linear_164_1296)"/>
<path d="M21.875 6.5625H24.0625C27.6869 6.5625 30.625 9.50063 30.625 13.125V26.25C30.625 29.8744 27.6869 32.8125 24.0625 32.8125H21.875V6.5625Z" fill="url(#paint3_radial_164_1296)"/>
<path d="M3.82812 4.32031V14.2735" stroke="url(#paint4_linear_164_1296)" stroke-miterlimit="10"/>
<path d="M4.375 13.125V25.1562C3.17188 25.1562 2.1875 24.1728 2.1875 22.9707V15.3105C2.1875 14.1085 3.17188 13.125 4.375 13.125Z" fill="url(#paint5_linear_164_1296)"/>
<path d="M24.8857 20.2344H10.1143C7.55541 20.2344 5.46875 18.1464 5.46875 15.5859C5.46875 13.0255 7.55541 10.9375 10.1143 10.9375H24.8857C27.4446 10.9375 29.5312 13.0255 29.5312 15.5859C29.5312 18.1355 27.4337 20.2344 24.8857 20.2344Z" fill="url(#paint6_linear_164_1296)"/>
<path d="M20.2652 28.4375H14.7348C13.8477 28.4375 13.125 27.7009 13.125 26.7969C13.125 25.8929 13.8477 25.1562 14.7348 25.1562H20.2652C21.1523 25.1562 21.875 25.8929 21.875 26.7969C21.875 27.7009 21.1523 28.4375 20.2652 28.4375Z" fill="url(#paint7_linear_164_1296)"/>
<path d="M3.82812 5.46875C4.73422 5.46875 5.46875 4.73422 5.46875 3.82812C5.46875 2.92203 4.73422 2.1875 3.82812 2.1875C2.92203 2.1875 2.1875 2.92203 2.1875 3.82812C2.1875 4.73422 2.92203 5.46875 3.82812 5.46875Z" fill="url(#paint8_radial_164_1296)"/>
<path d="M31.1719 4.375V14.3172" stroke="url(#paint9_linear_164_1296)" stroke-miterlimit="10"/>
<path d="M31.1719 5.57812C32.1082 5.57812 32.8672 4.81911 32.8672 3.88281C32.8672 2.94652 32.1082 2.1875 31.1719 2.1875C30.2356 2.1875 29.4766 2.94652 29.4766 3.88281C29.4766 4.81911 30.2356 5.57812 31.1719 5.57812Z" fill="url(#paint10_radial_164_1296)"/>
<path d="M10.3906 13.125H9.84375C8.63563 13.125 7.65625 14.1044 7.65625 15.3125V17.5C7.65625 18.7081 8.63563 19.6875 9.84375 19.6875H10.3906C11.5987 19.6875 12.5781 18.7081 12.5781 17.5V15.3125C12.5781 14.1044 11.5987 13.125 10.3906 13.125Z" fill="url(#paint11_radial_164_1296)"/>
<path d="M22.9688 13.125H22.4219C21.2138 13.125 20.2344 14.1044 20.2344 15.3125V17.5C20.2344 18.7081 21.2138 19.6875 22.4219 19.6875H22.9688C24.1769 19.6875 25.1562 18.7081 25.1562 17.5V15.3125C25.1562 14.1044 24.1769 13.125 22.9688 13.125Z" fill="url(#paint12_radial_164_1296)"/>
<path d="M21.3281 3.28125H13.6719C12.7658 3.28125 12.0312 4.01578 12.0312 4.92188C12.0312 5.82797 12.7658 6.5625 13.6719 6.5625H21.3281C22.2342 6.5625 22.9688 5.82797 22.9688 4.92188C22.9688 4.01578 22.2342 3.28125 21.3281 3.28125Z" fill="url(#paint13_linear_164_1296)"/>
<path d="M21.3281 3.28125H13.6719C12.7658 3.28125 12.0312 4.01578 12.0312 4.92188C12.0312 5.82797 12.7658 6.5625 13.6719 6.5625H21.3281C22.2342 6.5625 22.9688 5.82797 22.9688 4.92188C22.9688 4.01578 22.2342 3.28125 21.3281 3.28125Z" fill="url(#paint14_radial_164_1296)"/>
<path d="M30.625 25.0905V13.0483C31.8281 13.0483 32.8125 14.0327 32.8125 15.2358V22.903C32.8125 24.1062 31.8281 25.0905 30.625 25.0905Z" fill="url(#paint15_linear_164_1296)"/>
<path d="M12.5781 14.4922C12.5781 13.7371 11.966 13.125 11.2109 13.125C10.4559 13.125 9.84375 13.7371 9.84375 14.4922V17.2266C9.84375 17.9816 10.4559 18.5938 11.2109 18.5938C11.966 18.5938 12.5781 17.9816 12.5781 17.2266V14.4922Z" fill="url(#paint16_linear_164_1296)"/>
<path d="M12.5781 14.4922C12.5781 13.7371 11.966 13.125 11.2109 13.125C10.4559 13.125 9.84375 13.7371 9.84375 14.4922V17.2266C9.84375 17.9816 10.4559 18.5938 11.2109 18.5938C11.966 18.5938 12.5781 17.9816 12.5781 17.2266V14.4922Z" fill="url(#paint17_radial_164_1296)"/>
<path d="M25.1562 14.4922C25.1562 13.7371 24.5441 13.125 23.7891 13.125C23.034 13.125 22.4219 13.7371 22.4219 14.4922V17.2266C22.4219 17.9816 23.034 18.5938 23.7891 18.5938C24.5441 18.5938 25.1562 17.9816 25.1562 17.2266V14.4922Z" fill="url(#paint18_linear_164_1296)"/>
<path d="M25.1562 14.4922C25.1562 13.7371 24.5441 13.125 23.7891 13.125C23.034 13.125 22.4219 13.7371 22.4219 14.4922V17.2266C22.4219 17.9816 23.034 18.5938 23.7891 18.5938C24.5441 18.5938 25.1562 17.9816 25.1562 17.2266V14.4922Z" fill="url(#paint19_radial_164_1296)"/>
<path d="M3.96484 5.46875V12.0312" stroke="url(#paint20_linear_164_1296)" stroke-width="0.25"/>
<path d="M31.3086 5.46875V12.0312" stroke="url(#paint21_linear_164_1296)" stroke-width="0.25"/>
<path d="M31.7188 16.4062C32.3228 16.4062 32.8125 15.6717 32.8125 14.7656C32.8125 13.8595 32.3228 13.125 31.7188 13.125C31.1147 13.125 30.625 13.8595 30.625 14.7656C30.625 15.6717 31.1147 16.4062 31.7188 16.4062Z" fill="url(#paint22_radial_164_1296)"/>
<path d="M31.7188 22.9688C32.3228 22.9688 32.8125 20.7652 32.8125 18.0469C32.8125 15.3286 32.3228 13.125 31.7188 13.125C31.1147 13.125 30.625 15.3286 30.625 18.0469C30.625 20.7652 31.1147 22.9688 31.7188 22.9688Z" fill="url(#paint23_radial_164_1296)"/>
<path fill-rule="evenodd" clip-rule="evenodd" d="M21.6296 3.30908C22.294 3.43248 22.8177 3.95622 22.9411 4.6206C22.8297 5.1065 22.3946 5.46894 21.875 5.46894C21.2709 5.46894 20.7812 4.97925 20.7812 4.37519C20.7812 3.85551 21.1437 3.42047 21.6296 3.30908Z" fill="url(#paint24_radial_164_1296)"/>
<defs>
<radialGradient id="paint0_radial_164_1296" cx="0" cy="0" r="1" gradientUnits="userSpaceOnUse" gradientTransform="translate(27.3438 12.5781) rotate(141.911) scale(25.7089)">
<stop stop-color="#EEEBF0"/>
<stop offset="0.493469" stop-color="#D1BEE3"/>
<stop offset="1" stop-color="#D0BCE2"/>
</radialGradient>
<linearGradient id="paint1_linear_164_1296" x1="13.125" y1="19.6875" x2="4.375" y2="19.6875" gradientUnits="userSpaceOnUse">
<stop stop-color="#D5B2C0" stop-opacity="0"/>
<stop offset="1" stop-color="#B4878D"/>
</linearGradient>
<linearGradient id="paint2_linear_164_1296" x1="17.5" y1="29.5312" x2="17.5" y2="33.9062" gradientUnits="userSpaceOnUse">
<stop stop-color="#B17EDB" stop-opacity="0"/>
<stop offset="1" stop-color="#A56BD6"/>
</linearGradient>
<radialGradient id="paint3_radial_164_1296" cx="0" cy="0" r="1" gradientUnits="userSpaceOnUse" gradientTransform="translate(27.3438 14.7656) rotate(-5.71059) scale(5.49603 21.007)">
<stop stop-color="#F0EAF6"/>
<stop offset="1" stop-color="#E7E0EF" stop-opacity="0"/>
</radialGradient>
<linearGradient id="paint4_linear_164_1296" x1="-nan" y1="-nan" x2="-nan" y2="-nan" gradientUnits="userSpaceOnUse">
<stop stop-color="#EA248A"/>
<stop offset="1" stop-color="#DF2232"/>
</linearGradient>
<linearGradient id="paint5_linear_164_1296" x1="3.28125" y1="13.125" x2="3.28125" y2="25.1562" gradientUnits="userSpaceOnUse">
<stop stop-color="#E93273"/>
<stop offset="1" stop-color="#D21844"/>
</linearGradient>
<linearGradient id="paint6_linear_164_1296" x1="17.498" y1="19.36" x2="17.498" y2="12.4587" gradientUnits="userSpaceOnUse">
<stop offset="0.00558659" stop-color="#443E75"/>
<stop offset="1" stop-color="#2F1A3B"/>
</linearGradient>
<linearGradient id="paint7_linear_164_1296" x1="17.498" y1="28.094" x2="17.498" y2="25.0352" gradientUnits="userSpaceOnUse">
<stop offset="0.00558659" stop-color="#39325E"/>
<stop offset="1" stop-color="#2B1831"/>
</linearGradient>
<radialGradient id="paint8_radial_164_1296" cx="0" cy="0" r="1" gradientUnits="userSpaceOnUse" gradientTransform="translate(4.375 3.28125) rotate(104.036) scale(2.25482)">
<stop stop-color="#FF6C82"/>
<stop offset="0.441384" stop-color="#FF2455"/>
<stop offset="1" stop-color="#D9206C"/>
</radialGradient>
<linearGradient id="paint9_linear_164_1296" x1="-nan" y1="-nan" x2="-nan" y2="-nan" gradientUnits="userSpaceOnUse">
<stop stop-color="#EA248A"/>
<stop offset="1" stop-color="#DF2232"/>
</linearGradient>
<radialGradient id="paint10_radial_164_1296" cx="0" cy="0" r="1" gradientUnits="userSpaceOnUse" gradientTransform="translate(31.737 3.3177) rotate(104.036) scale(2.32998 2.32998)">
<stop stop-color="#FF6C82"/>
<stop offset="0.441384" stop-color="#FF2455"/>
<stop offset="1" stop-color="#D9206C"/>
</radialGradient>
<radialGradient id="paint11_radial_164_1296" cx="0" cy="0" r="1" gradientUnits="userSpaceOnUse" gradientTransform="translate(10.3906 16.4062) rotate(168.69) scale(2.78853 3.81622)">
<stop stop-color="#322649"/>
<stop offset="1" stop-color="#342950" stop-opacity="0"/>
</radialGradient>
<radialGradient id="paint12_radial_164_1296" cx="0" cy="0" r="1" gradientUnits="userSpaceOnUse" gradientTransform="translate(22.9688 16.4062) rotate(168.69) scale(2.78853 3.81622)">
<stop stop-color="#322649"/>
<stop offset="1" stop-color="#342950" stop-opacity="0"/>
</radialGradient>
<linearGradient id="paint13_linear_164_1296" x1="17.5" y1="3.28125" x2="15.8594" y2="7.10938" gradientUnits="userSpaceOnUse">
<stop stop-color="#FFCE2B"/>
<stop offset="1" stop-color="#D9862D"/>
</linearGradient>
<radialGradient id="paint14_radial_164_1296" cx="0" cy="0" r="1" gradientUnits="userSpaceOnUse" gradientTransform="translate(17.5 4.375) rotate(90) scale(3.28125 10.9375)">
<stop offset="0.430882" stop-color="#CA7E29" stop-opacity="0"/>
<stop offset="1" stop-color="#673F13"/>
</radialGradient>
<linearGradient id="paint15_linear_164_1296" x1="31.7187" y1="13.0483" x2="31.7187" y2="25.0905" gradientUnits="userSpaceOnUse">
<stop stop-color="#FF30AA"/>
<stop offset="1" stop-color="#FF2353"/>
</linearGradient>
<linearGradient id="paint16_linear_164_1296" x1="12.5781" y1="15.3125" x2="9.84375" y2="15.3125" gradientUnits="userSpaceOnUse">
<stop stop-color="#29B6FE"/>
<stop offset="1" stop-color="#1769A8"/>
</linearGradient>
<radialGradient id="paint17_radial_164_1296" cx="0" cy="0" r="1" gradientUnits="userSpaceOnUse" gradientTransform="translate(12.0312 14.7656) rotate(90) scale(2.73438 1.25117)">
<stop stop-color="#54C8FF"/>
<stop offset="1" stop-color="#54C8FF" stop-opacity="0"/>
</radialGradient>
<linearGradient id="paint18_linear_164_1296" x1="25.1562" y1="15.3125" x2="22.4219" y2="15.3125" gradientUnits="userSpaceOnUse">
<stop stop-color="#29B6FE"/>
<stop offset="1" stop-color="#1769A8"/>
</linearGradient>
<radialGradient id="paint19_radial_164_1296" cx="0" cy="0" r="1" gradientUnits="userSpaceOnUse" gradientTransform="translate(24.6094 14.7656) rotate(90) scale(2.73438 1.25117)">
<stop stop-color="#54C8FF"/>
<stop offset="1" stop-color="#54C8FF" stop-opacity="0"/>
</radialGradient>
<linearGradient id="paint20_linear_164_1296" x1="-nan" y1="-nan" x2="-nan" y2="-nan" gradientUnits="userSpaceOnUse">
<stop stop-color="#FF96CB"/>
<stop offset="1" stop-color="#FF6DB7" stop-opacity="0"/>
</linearGradient>
<linearGradient id="paint21_linear_164_1296" x1="-nan" y1="-nan" x2="-nan" y2="-nan" gradientUnits="userSpaceOnUse">
<stop stop-color="#FF96CB"/>
<stop offset="1" stop-color="#FF6DB7" stop-opacity="0"/>
</linearGradient>
<radialGradient id="paint22_radial_164_1296" cx="0" cy="0" r="1" gradientUnits="userSpaceOnUse" gradientTransform="translate(31.7188 14.7656) rotate(90) scale(1.64062 1.09375)">
<stop stop-color="#FF72C1"/>
<stop offset="1" stop-color="#FF6EBF" stop-opacity="0"/>
</radialGradient>
<radialGradient id="paint23_radial_164_1296" cx="0" cy="0" r="1" gradientUnits="userSpaceOnUse" gradientTransform="translate(31.7188 18.0469) rotate(90) scale(4.92188 0.611887)">
<stop stop-color="#FF4B9C"/>
<stop offset="1" stop-color="#FF73C1" stop-opacity="0"/>
</radialGradient>
<radialGradient id="paint24_radial_164_1296" cx="0" cy="0" r="1" gradientUnits="userSpaceOnUse" gradientTransform="translate(21.875 4.37519) rotate(90) scale(1.09375)">
<stop stop-color="#FFEA60"/>
<stop offset="1" stop-color="#FFEF66" stop-opacity="0"/>
</radialGradient>
</defs>
</svg>
