<svg width="29" height="30" viewBox="0 0 29 30" fill="none" xmlns="http://www.w3.org/2000/svg">
<path d="M6.49301 19.8791C5.22088 21.1533 4.61937 22.9242 4.89398 24.5868C6.55665 24.8592 8.32658 24.2567 9.59964 22.985C10.8718 21.7108 11.4733 19.9399 11.1987 18.2773C9.536 18.0049 7.76607 18.6074 6.49301 19.8791Z" fill="#FCEA2B"/>
<path d="M12.8778 18.9629C12.8006 19.352 12.6097 19.7095 12.3294 19.9903C12.1929 20.1262 12.0376 20.2417 11.8682 20.3333C12.7392 21.5302 13.3818 22.8647 13.7593 24.2606C14.0449 24.0103 14.3194 23.7456 14.5816 23.4678C15.3524 22.6484 16.0111 21.7207 16.5358 20.7157C17.0395 19.741 17.4118 18.705 17.6411 17.6404C16.1393 18.4276 14.5107 18.8797 12.8778 18.9629Z" fill="#61B2E4"/>
<path d="M6.01088 14.899C5.73297 15.1608 5.46826 15.4348 5.21777 15.72C6.61469 16.0951 7.95046 16.7354 9.14905 17.6044C9.24023 17.4376 9.35462 17.2846 9.48879 17.15C9.76868 16.8707 10.1248 16.6801 10.5125 16.6023C10.5974 14.9708 11.0508 13.3439 11.8389 11.8439C11.8396 11.8424 11.8404 11.8409 11.8411 11.8394C10.7758 12.0684 9.73912 12.4406 8.76371 12.9443C7.75838 13.4692 6.83042 14.1281 6.01088 14.899Z" fill="#92D3F5"/>
<path d="M14.0251 8.85655C11.918 10.9714 10.6552 13.7557 10.5117 16.6032C11.1713 16.4695 11.854 16.6749 12.3303 17.1503C12.808 17.6283 13.0132 18.3145 12.8764 18.9762C15.7262 18.8308 18.5121 17.5655 20.6267 15.456C23.33 12.7481 24.6079 8.98455 24.0236 5.45138C23.3261 5.33752 22.6121 5.29515 21.8923 5.32487C19.0027 5.44272 16.1688 6.71502 14.0251 8.85655ZM18.1531 8.64344C18.8947 7.9018 20.0973 7.9016 20.8391 8.64295C20.8393 8.64312 20.8395 8.64328 20.8396 8.64344C21.5815 9.38483 21.5817 10.587 20.8401 11.3286C20.8399 11.3288 20.8398 11.329 20.8396 11.3291C20.0977 12.0704 18.8953 12.0701 18.1537 11.3286C17.4119 10.5872 17.4116 9.38507 18.1531 8.64344Z" fill="#EA5A47"/>
<path d="M10.6888 21.4592C10.3361 21.8552 9.9278 22.203 9.47758 22.491C8.0716 23.3863 6.36636 23.6327 4.8694 23.1568C4.80918 23.6387 4.81732 24.1201 4.89356 24.5865C6.55623 24.8589 8.32616 24.2564 9.59922 22.9847C10.0442 22.5364 10.4131 22.0198 10.6888 21.4592Z" fill="#F1B31C"/>
<path d="M10.5544 16.0823C10.5411 16.2548 10.5319 16.427 10.5269 16.5991C11.1822 16.4718 11.858 16.6783 12.3302 17.1502C12.8079 17.6282 13.0132 18.3143 12.8764 18.976C15.726 18.8303 18.5115 17.5648 20.6258 15.4553C21.2273 14.8484 21.7643 14.1817 22.2267 13.468C21.6841 13.9621 21.0969 14.4083 20.4734 14.8002C17.4295 16.6976 13.7497 17.1733 10.5544 16.0823Z" fill="#D22F27"/>
<path d="M9.68216 20.0552C10.0327 19.8791 10.3752 19.6856 10.7093 19.476C11.6934 18.8588 12.5933 18.1047 13.3795 17.2385L13.3806 17.2374C14.1379 16.3951 14.78 15.4576 15.2869 14.4533C15.3115 14.4048 15.3258 14.3518 15.3291 14.2976C13.9602 13.9941 9.34943 18.4264 9.68216 20.0552Z" fill="#61B2E4"/>
<path d="M19.4964 12.3779C18.1769 12.3779 17.1035 11.3048 17.1035 9.98568C17.1035 8.66655 18.1769 7.59351 19.4964 7.59351C20.816 7.59351 21.8893 8.66655 21.8893 9.98568C21.8893 11.3048 20.816 12.3779 19.4964 12.3779ZM19.4964 8.39088C18.6168 8.39088 17.9011 9.1061 17.9011 9.98568C17.9011 10.8652 18.6168 11.5805 19.4964 11.5805C20.376 11.5805 21.0917 10.8652 21.0917 9.98568C21.0917 9.1061 20.376 8.39088 19.4964 8.39088Z" fill="black"/>
<path d="M8.31841 18.6504C7.64254 18.9357 7.02057 19.3542 6.49257 19.8792C5.22056 21.1532 4.61897 22.9239 4.89342 24.5864C6.55609 24.8588 8.32594 24.2563 9.59908 22.9846C10.1244 22.4568 10.5434 21.8351 10.829 21.1593" stroke="black" stroke-width="1.949" stroke-miterlimit="10" stroke-linecap="round" stroke-linejoin="round"/>
<path d="M6.01039 14.899C5.73248 15.1608 5.46777 15.4348 5.21729 15.72C6.6142 16.0951 7.94997 16.7354 9.14856 17.6044C9.23975 17.4376 9.35414 17.2846 9.4883 17.15C9.76819 16.8707 10.1243 16.6801 10.512 16.6023C10.5969 14.9708 11.0503 13.3439 11.8384 11.8439C11.8392 11.8424 11.8399 11.8409 11.8406 11.8394C10.7753 12.0684 9.73863 12.4406 8.76322 12.9443C7.75789 13.4692 6.82993 14.1281 6.01039 14.899Z" stroke="black" stroke-width="1.949" stroke-miterlimit="10" stroke-linecap="round" stroke-linejoin="round"/>
<path d="M12.8778 18.9629C12.8006 19.352 12.6097 19.7095 12.3294 19.9903C12.1929 20.1262 12.0376 20.2417 11.8682 20.3333C12.7392 21.5302 13.3818 22.8647 13.7593 24.2606C14.0449 24.0103 14.3194 23.7456 14.5816 23.4678C15.3524 22.6484 16.0111 21.7207 16.5358 20.7157C17.0395 19.741 17.4118 18.705 17.6411 17.6404C16.1393 18.4276 14.5107 18.8797 12.8778 18.9629Z" stroke="black" stroke-width="1.949" stroke-miterlimit="10" stroke-linecap="round" stroke-linejoin="round"/>
<path d="M12.8204 17.9585C12.929 18.3155 12.9214 18.6399 12.8757 18.9753C15.7257 18.8299 18.5117 17.5643 20.6263 15.4545C23.3292 12.7473 24.6072 8.98472 24.0238 5.45195C20.4909 4.87336 16.7303 6.15359 14.0256 8.85575C11.9182 10.9707 10.6552 13.7551 10.5117 16.6028C10.8909 16.526 11.2764 16.5648 11.6271 16.6989" stroke="black" stroke-width="1.949" stroke-miterlimit="10" stroke-linecap="round" stroke-linejoin="round"/>
<path d="M14.9317 14.2734C13.9587 14.7641 13.0497 15.3862 12.2332 16.1199C11.3934 16.8816 10.6623 17.7534 10.0645 18.7062C9.86149 19.0297 9.6744 19.3616 9.50391 19.7008" stroke="black" stroke-width="1.949" stroke-miterlimit="10" stroke-linecap="round" stroke-linejoin="round"/>
</svg>
